<svg width="468" height="351" viewBox="0 0 468 351" fill="none" xmlns="http://www.w3.org/2000/svg">
<g clip-path="url(#clip0_2_411)">
<path fill-rule="evenodd" clip-rule="evenodd" d="M36.0797 27.1369C36.2047 27.2619 36.2749 27.4315 36.2749 27.6083C36.2749 27.7851 36.2047 27.9546 36.0797 28.0796L32.551 31.6085H41.6083C41.7851 31.6085 41.9547 31.6787 42.0797 31.8037C42.2048 31.9288 42.275 32.0983 42.275 32.2752C42.275 32.452 42.2048 32.6216 42.0797 32.7466C41.9547 32.8716 41.7851 32.9419 41.6083 32.9419H32.551L36.0797 36.4707C36.2011 36.5964 36.2683 36.7649 36.2668 36.9397C36.2653 37.1145 36.1952 37.2817 36.0715 37.4053C35.9479 37.5289 35.7807 37.599 35.6059 37.6005C35.4311 37.6021 35.2627 37.5349 35.137 37.4134L30.4703 32.7465C30.3454 32.6215 30.2751 32.452 30.2751 32.2752C30.2751 32.0984 30.3454 31.9288 30.4703 31.8038L35.137 27.1369C35.262 27.0119 35.4316 26.9417 35.6083 26.9417C35.7851 26.9417 35.9547 27.0119 36.0797 27.1369V27.1369Z" fill="#9F0023"/>
<path d="M210.547 38.0028C210.715 38.0028 210.785 37.9328 210.785 37.8208V36.8268C212.955 36.7568 214.551 35.6228 214.551 33.4948V30.8208C214.551 28.6928 212.997 27.5308 210.785 27.4608V26.5228C210.785 26.3548 210.673 26.2848 210.491 26.2848H209.105C208.895 26.2848 208.825 26.3548 208.825 26.5228V27.4608C206.627 27.5448 205.059 28.6928 205.059 30.8208V33.4948C205.059 35.6228 206.669 36.7568 208.825 36.8268V37.8208C208.825 37.9328 208.909 38.0028 209.063 38.0028H210.547ZM212.591 33.3688C212.591 34.5028 211.989 35.2168 210.785 35.2588V29.0288C211.975 29.0988 212.591 29.7848 212.591 30.9328V33.3688ZM208.825 35.2588C207.635 35.2168 207.019 34.5028 207.019 33.3688V30.9328C207.019 29.7848 207.635 29.0988 208.825 29.0288V35.2588ZM220.492 32.8088H217.874V32.5568C217.874 31.8288 218.126 31.0588 219.162 31.0588C220.282 31.0588 220.492 31.8288 220.492 32.4028V32.8088ZM221.038 34.8388C220.828 34.7408 220.73 34.8108 220.66 34.9648C220.464 35.3988 220.002 35.8468 219.204 35.8468C218.224 35.8468 217.874 35.2868 217.874 34.4468V34.1388H221.99C222.214 34.1388 222.354 34.0128 222.354 33.7888V32.8228C222.354 30.4708 221.178 29.4628 219.176 29.4628C217.23 29.4628 215.942 30.6388 215.942 32.6268V34.3768C215.942 36.2528 217.034 37.4428 219.204 37.4428C220.548 37.4428 221.64 36.8828 222.2 35.7628C222.326 35.5388 222.228 35.4268 222.074 35.3428L221.038 34.8388ZM227.333 37.2748C229.489 37.2748 230.245 36.3648 230.245 35.2448V34.9368C230.245 34.0128 229.503 33.3688 228.747 33.2428C229.461 33.0328 229.979 32.5008 229.979 31.7448V31.5348C229.979 30.3448 229.097 29.7008 227.543 29.7008H223.889V37.2748H227.333ZM228.103 31.8568C228.103 32.3468 227.823 32.6268 227.039 32.6268H225.779V31.1148H227.053C227.865 31.1148 228.103 31.3808 228.103 31.8148V31.8568ZM228.341 35.0348C228.341 35.6228 228.005 35.8608 227.137 35.8608H225.779V34.0408H227.137C228.005 34.0408 228.341 34.3488 228.341 34.9368V35.0348ZM236.57 34.2228C236.57 35.5248 235.87 35.8468 235.142 35.8468C234.106 35.8468 233.56 35.1048 233.56 34.1528V32.6968C233.56 31.6328 234.372 31.0588 235.142 31.0588C236.066 31.0588 236.57 31.6468 236.57 32.8648V34.2228ZM233.378 40.1868C233.476 40.1868 233.56 40.1028 233.56 39.9908V36.4068C233.84 36.8828 234.442 37.4428 235.562 37.4428C237.088 37.4428 238.544 36.4628 238.544 34.4188V32.5288C238.544 30.5968 237.48 29.4628 235.856 29.4628C234.792 29.4628 233.966 30.0788 233.504 30.6808V29.7988C233.504 29.6868 233.406 29.6168 233.308 29.6168H231.782C231.698 29.6168 231.6 29.6868 231.6 29.7988V39.9908C231.6 40.1168 231.698 40.1868 231.782 40.1868H233.378ZM244.122 35.0628C243.73 35.6088 243.17 35.8468 242.554 35.8468C241.98 35.8468 241.672 35.4828 241.672 35.0208V34.9928C241.672 34.3068 242.078 33.8868 244.122 33.9848V35.0628ZM245.83 37.2748C245.942 37.2748 246.04 37.2328 246.04 37.0788V32.3328C246.04 30.4568 244.738 29.4628 243.114 29.4628C241.574 29.4628 240.734 30.0228 240.174 31.2268C240.118 31.3528 240.188 31.4508 240.3 31.5068L241.35 32.0668C241.462 32.1228 241.63 32.1368 241.7 31.9268C241.868 31.3808 242.302 31.0588 242.904 31.0588C243.786 31.0588 244.122 31.4928 244.122 32.4588V32.7948C240.748 32.5008 239.726 33.6348 239.726 35.1328V35.2308C239.726 36.4068 240.58 37.4288 242.022 37.4288C243.086 37.4288 243.702 36.9388 244.178 36.3228V37.0788C244.178 37.2328 244.276 37.2748 244.388 37.2748H245.83ZM253.891 37.2748C254.003 37.2748 254.115 37.2468 254.115 37.0788V29.8688C254.115 29.7848 254.059 29.7008 253.919 29.7008H248.515C248.375 29.7008 248.291 29.7848 248.291 29.8688V33.1308C248.291 34.2368 248.165 35.1888 246.947 36.0428C246.793 36.1548 246.723 36.3088 246.919 36.5188L247.703 37.3448C247.843 37.5128 248.025 37.4708 248.179 37.3588C249.789 36.2388 250.237 34.8808 250.237 33.2148V31.2548H252.155V37.0648C252.155 37.2468 252.267 37.2748 252.379 37.2748H253.891ZM260.026 35.0348C260.026 35.5528 259.83 35.8748 258.766 35.8748H257.814V33.7748H258.906C259.76 33.7748 260.026 34.1808 260.026 34.6848V35.0348ZM258.976 37.2748C261.23 37.2748 261.986 36.4628 261.986 35.2308V34.4188C261.986 33.1728 261.258 32.3888 259.214 32.3888H257.814V29.8688C257.814 29.7848 257.758 29.7008 257.618 29.7008H256.092C255.91 29.7008 255.854 29.7428 255.854 29.9248V37.2748H258.976Z" fill="#373334"/>
<path fill-rule="evenodd" clip-rule="evenodd" d="M431.921 27.1369C432.046 27.0119 432.215 26.9417 432.392 26.9417C432.569 26.9417 432.738 27.0119 432.863 27.1369L437.53 31.8038C437.655 31.9288 437.725 32.0984 437.725 32.2752C437.725 32.452 437.655 32.6215 437.53 32.7465L432.863 37.4134C432.738 37.5349 432.569 37.6021 432.394 37.6005C432.22 37.599 432.052 37.5289 431.929 37.4053C431.805 37.2817 431.735 37.1145 431.734 36.9397C431.732 36.7649 431.799 36.5964 431.921 36.4707L435.449 32.9419H426.392C426.215 32.9419 426.046 32.8716 425.921 32.7466C425.796 32.6216 425.725 32.452 425.725 32.2752C425.725 32.0983 425.796 31.9288 425.921 31.8037C426.046 31.6787 426.215 31.6085 426.392 31.6085H435.449L431.921 28.0796C431.796 27.9546 431.725 27.7851 431.725 27.6083C431.725 27.4315 431.796 27.2619 431.921 27.1369V27.1369Z" fill="#9F0023"/>
</g>
<path d="M50.2263 76.2748C50.3823 76.2748 50.4063 76.2028 50.4063 76.1188V67.6828C50.4063 67.5508 50.3583 67.4908 50.2023 67.4908H44.2743C44.1543 67.4908 44.1063 67.5748 44.1063 67.6468V76.0948C44.1063 76.2148 44.1423 76.2748 44.2863 76.2748H45.3783C45.4983 76.2748 45.5343 76.2148 45.5343 76.0948V68.7028H48.9783V76.1188C48.9783 76.2268 49.0383 76.2748 49.1823 76.2748H50.2263ZM57.378 76.2748C57.462 76.2748 57.558 76.2508 57.558 76.1068V69.9508C57.558 69.8428 57.486 69.7708 57.378 69.7708H56.358C56.262 69.7708 56.166 69.8188 56.166 69.9508V72.2788H53.454V69.9508C53.454 69.8428 53.382 69.7708 53.274 69.7708H52.254C52.158 69.7708 52.074 69.8188 52.074 69.9508V76.0948C52.074 76.2268 52.134 76.2748 52.242 76.2748H53.274C53.37 76.2748 53.454 76.2508 53.454 76.1068V73.3948H56.166V76.1068C56.166 76.2268 56.238 76.2748 56.346 76.2748H57.378Z" fill="#373334"/>
<path d="M109.545 76.2748C111.333 76.2748 112.305 75.2788 112.305 73.9228V73.7188C112.305 72.6268 111.657 71.8828 110.793 71.7148C111.561 71.4868 112.065 70.7668 112.065 69.8788V69.6508C112.065 68.3548 111.153 67.4908 109.485 67.4908H106.425V76.2748H109.545ZM107.853 75.0148V72.3388H109.353C110.301 72.3388 110.865 72.7468 110.877 73.6588C110.877 74.7148 110.301 75.0148 109.185 75.0148H107.853ZM110.661 70.0348C110.661 70.7668 110.157 71.1988 109.197 71.1988H107.853V68.7148H109.077C110.145 68.7148 110.661 69.0748 110.661 69.8788V70.0348ZM115.984 76.2748C116.08 76.2748 116.164 76.2508 116.164 76.1068V70.9108H118.072C118.168 70.9108 118.228 70.8628 118.228 70.7548V69.9628C118.228 69.8188 118.168 69.7828 118.036 69.7828H112.888C112.768 69.7828 112.72 69.8188 112.72 69.9628V70.7548C112.72 70.8628 112.768 70.9108 112.864 70.9108H114.784V76.1068C114.784 76.2268 114.844 76.2748 114.952 76.2748H115.984Z" fill="#373334"/>
<path d="M171.642 73.7788C171.462 73.7308 171.342 73.7788 171.294 73.9468C171.114 74.6308 170.622 75.1588 169.71 75.1588C168.57 75.1588 168.006 74.4148 168.006 73.2508V70.5268C168.006 69.3268 168.63 68.6308 169.71 68.6308C170.61 68.6308 171.09 69.0748 171.306 69.7948C171.354 69.9748 171.462 70.0348 171.63 69.9748L172.446 69.7108C172.602 69.6628 172.638 69.5428 172.59 69.3628C172.266 68.2468 171.402 67.3708 169.722 67.3708C167.67 67.3708 166.578 68.6068 166.578 70.4188V73.4068C166.578 75.3388 167.586 76.4188 169.698 76.4188C171.306 76.4188 172.266 75.3628 172.542 74.4988C172.602 74.2948 172.626 74.1628 172.446 74.1028L171.642 73.7788ZM178.023 73.6708C178.023 74.8948 177.387 75.2668 176.643 75.2668C175.719 75.2668 175.167 74.6188 175.167 73.7548V72.3388C175.167 71.3548 175.935 70.7428 176.703 70.7428C177.591 70.7428 178.023 71.3188 178.023 72.4108V73.6708ZM175.023 78.7708C175.095 78.7708 175.167 78.7108 175.167 78.6148V75.5068C175.407 75.9148 175.935 76.4068 176.919 76.4068C178.227 76.4068 179.415 75.5308 179.415 73.8148V72.1828C179.415 70.5268 178.539 69.5908 177.147 69.5908C176.199 69.5908 175.491 70.1788 175.131 70.6948V69.8548C175.131 69.7588 175.059 69.7108 174.975 69.7108H173.931C173.859 69.7108 173.787 69.7588 173.787 69.8548V78.6148C173.787 78.7228 173.859 78.7708 173.931 78.7708H175.023Z" fill="#373334"/>
<path d="M234.017 76.2748C234.149 76.2748 234.209 76.2268 234.209 76.1188V67.6468C234.209 67.5508 234.161 67.4908 234.053 67.4908H232.937C232.829 67.4908 232.781 67.5508 232.781 67.6588V71.5708C232.337 71.8228 231.749 71.9908 231.113 71.9908C230.285 71.9908 229.553 71.6308 229.553 70.5988V67.6588C229.553 67.5748 229.517 67.4908 229.385 67.4908H228.281C228.149 67.4908 228.113 67.5748 228.113 67.6588V70.7308C228.113 72.4588 229.361 73.1668 230.777 73.1668C231.461 73.1668 232.181 73.0348 232.781 72.7228V76.1188C232.781 76.2268 232.829 76.2748 232.973 76.2748H234.017ZM238.265 76.2748C238.361 76.2748 238.445 76.2508 238.445 76.1068V70.9108H240.353C240.449 70.9108 240.509 70.8628 240.509 70.7548V69.9628C240.509 69.8188 240.449 69.7828 240.317 69.7828H235.169C235.049 69.7828 235.001 69.8188 235.001 69.9628V70.7548C235.001 70.8628 235.049 70.9108 235.145 70.9108H237.065V76.1068C237.065 76.2268 237.125 76.2748 237.233 76.2748H238.265Z" fill="#373334"/>
<path d="M295.333 76.2748C295.489 76.2748 295.513 76.2028 295.513 76.1188V67.6828C295.513 67.5508 295.465 67.4908 295.309 67.4908H289.381C289.261 67.4908 289.213 67.5748 289.213 67.6468V76.0948C289.213 76.2148 289.249 76.2748 289.393 76.2748H290.485C290.605 76.2748 290.641 76.2148 290.641 76.0948V68.7028H294.085V76.1188C294.085 76.2268 294.145 76.2748 294.289 76.2748H295.333ZM299.581 76.2748C299.677 76.2748 299.761 76.2508 299.761 76.1068V70.9108H301.669C301.765 70.9108 301.825 70.8628 301.825 70.7548V69.9628C301.825 69.8188 301.765 69.7828 301.633 69.7828H296.485C296.365 69.7828 296.317 69.8188 296.317 69.9628V70.7548C296.317 70.8628 296.365 70.9108 296.461 70.9108H298.381V76.1068C298.381 76.2268 298.441 76.2748 298.549 76.2748H299.581Z" fill="#373334"/>
<path d="M354.817 73.7788C354.637 73.7308 354.517 73.7788 354.469 73.9468C354.289 74.6308 353.797 75.1588 352.885 75.1588C351.745 75.1588 351.181 74.4148 351.181 73.2508V70.5268C351.181 69.3268 351.805 68.6308 352.885 68.6308C353.785 68.6308 354.265 69.0748 354.481 69.7948C354.529 69.9748 354.637 70.0348 354.805 69.9748L355.621 69.7108C355.777 69.6628 355.813 69.5428 355.765 69.3628C355.441 68.2468 354.577 67.3708 352.897 67.3708C350.845 67.3708 349.753 68.6068 349.753 70.4188V73.4068C349.753 75.3388 350.761 76.4188 352.873 76.4188C354.481 76.4188 355.441 75.3628 355.717 74.4988C355.777 74.2948 355.801 74.1628 355.621 74.1028L354.817 73.7788ZM362.614 72.3028C362.614 70.7308 361.558 69.8068 360.094 69.8068C359.41 69.8068 358.738 70.0468 358.222 70.5868C358.234 69.8428 358.486 69.4828 358.81 69.2068C359.434 68.6548 360.562 68.7748 361.234 68.3548C361.582 68.1508 361.834 67.8748 361.834 67.4548C361.834 67.3588 361.822 67.2748 361.702 67.2748H360.682C360.526 67.2748 360.49 67.2988 360.454 67.4068C360.37 67.7068 359.938 67.7788 359.302 67.8868C358.762 67.9948 358.21 68.1868 357.814 68.5348C356.986 69.2548 356.878 70.3588 356.878 71.4028V73.8628C356.878 75.4948 358.018 76.4188 359.746 76.4188C361.306 76.4188 362.614 75.5548 362.614 73.9108V72.3028ZM361.234 73.9348C361.234 74.8588 360.622 75.3148 359.746 75.3148C358.774 75.3148 358.258 74.7988 358.258 73.8988V72.5068C358.258 71.6308 358.81 70.9588 359.758 70.9588C360.646 70.9588 361.234 71.4268 361.234 72.3628V73.9348Z" fill="#373334"/>
<path d="M414.45 76.2748C416.238 76.2748 417.21 75.2788 417.21 73.9228V73.7188C417.21 72.6268 416.562 71.8828 415.698 71.7148C416.466 71.4868 416.97 70.7668 416.97 69.8788V69.6508C416.97 68.3548 416.058 67.4908 414.39 67.4908H411.33V76.2748H414.45ZM412.758 75.0148V72.3388H414.258C415.206 72.3388 415.77 72.7468 415.782 73.6588C415.782 74.7148 415.206 75.0148 414.09 75.0148H412.758ZM415.566 70.0348C415.566 70.7668 415.062 71.1988 414.102 71.1988H412.758V68.7148H413.982C415.05 68.7148 415.566 69.0748 415.566 69.8788V70.0348ZM422.533 74.2468C422.401 74.1868 422.293 74.1748 422.233 74.3548C422.101 74.7868 421.789 75.2668 420.997 75.2668C420.193 75.2668 419.689 74.8228 419.689 73.7908V72.2788C419.689 71.1748 420.217 70.7308 420.973 70.7308C421.765 70.7308 422.065 71.2588 422.161 71.8108C422.197 71.9788 422.293 71.9668 422.413 71.9428L423.277 71.7148C423.409 71.6788 423.445 71.5948 423.421 71.4748C423.169 70.2748 422.269 69.5908 420.973 69.5908C419.533 69.5908 418.297 70.4668 418.297 72.1708V73.8148C418.297 75.5548 419.425 76.4068 420.949 76.4068C422.269 76.4068 423.037 75.8068 423.385 74.8948C423.433 74.7388 423.361 74.6788 423.241 74.6188L422.533 74.2468Z" fill="#373334"/>
<rect x="24.2749" y="84.2748" width="419.45" height="2" fill="#373334"/>
<g clip-path="url(#clip1_2_411)">
<g clip-path="url(#clip2_2_411)">
<circle cx="51.2749" cy="108.275" r="12" fill="white"/>
<path d="M49.7337 111.275C49.8297 111.275 49.8657 111.203 49.8657 111.119V110.447C49.8657 110.375 49.8417 110.303 49.7337 110.303H45.3537V110.039C45.3537 109.055 45.5937 108.599 47.4777 107.711C49.3017 106.859 49.9257 106.211 49.9257 104.867C49.9257 103.487 49.0377 102.383 47.2137 102.383C45.7737 102.383 44.8377 103.163 44.3937 104.291C44.3217 104.471 44.4177 104.507 44.5137 104.555L45.1137 104.783C45.2337 104.819 45.3057 104.771 45.3657 104.615C45.6777 103.883 46.1217 103.367 47.2257 103.367C48.2577 103.367 48.8097 104.003 48.8097 104.855C48.8097 105.659 48.5217 106.103 46.9497 106.835C44.7297 107.867 44.2017 108.791 44.2017 110.423V111.275H49.7337ZM57.3707 108.251C57.3707 106.523 56.2907 105.515 54.6947 105.515C53.7347 105.515 52.9907 105.947 52.6547 106.487L52.6307 106.475V105.635C52.6427 104.039 53.3147 103.367 54.5507 103.367C55.4507 103.367 55.9427 103.859 56.1707 104.435C56.2427 104.615 56.3027 104.639 56.3987 104.591L57.0347 104.363C57.1547 104.315 57.2267 104.267 57.1667 104.099C56.9147 103.391 56.2067 102.383 54.5507 102.383C52.6187 102.383 51.5267 103.619 51.5267 105.635V108.527C51.5267 110.195 52.5707 111.407 54.5267 111.407C56.1347 111.407 57.3707 110.303 57.3707 108.647V108.251ZM56.2667 108.563C56.2667 109.667 55.5587 110.423 54.5387 110.423C53.2667 110.423 52.6427 109.631 52.6427 108.563V108.335C52.6427 107.183 53.4347 106.439 54.5747 106.439C55.6667 106.439 56.2667 107.159 56.2667 108.323V108.563Z" fill="#959595"/>
<circle cx="112.339" cy="108.275" r="12" fill="white"/>
<path d="M111.349 111.275C111.445 111.275 111.481 111.203 111.481 111.119V110.447C111.481 110.375 111.457 110.303 111.349 110.303H106.969V110.039C106.969 109.055 107.209 108.599 109.093 107.711C110.917 106.859 111.541 106.211 111.541 104.867C111.541 103.487 110.653 102.383 108.829 102.383C107.389 102.383 106.453 103.163 106.009 104.291C105.937 104.471 106.033 104.507 106.129 104.555L106.729 104.783C106.849 104.819 106.921 104.771 106.981 104.615C107.293 103.883 107.737 103.367 108.841 103.367C109.873 103.367 110.425 104.003 110.425 104.855C110.425 105.659 110.137 106.103 108.565 106.835C106.345 107.867 105.817 108.791 105.817 110.423V111.275H111.349ZM114.87 111.275C114.942 111.275 115.014 111.239 115.014 111.131C115.014 108.935 116.646 105.587 118.158 103.427C118.242 103.307 118.254 103.259 118.254 103.139V102.647C118.254 102.563 118.194 102.503 118.098 102.503H113.118C113.01 102.503 112.986 102.575 112.986 102.647V103.331C112.986 103.415 113.022 103.475 113.118 103.475H116.958C115.518 105.599 113.898 108.875 113.898 111.131C113.898 111.251 113.97 111.275 114.042 111.275H114.87Z" fill="#959595"/>
<circle cx="173.404" cy="108.275" r="12" fill="white"/>
<path d="M171.798 111.275C171.894 111.275 171.93 111.203 171.93 111.119V110.447C171.93 110.375 171.906 110.303 171.798 110.303H167.418V110.039C167.418 109.055 167.658 108.599 169.542 107.711C171.366 106.859 171.99 106.211 171.99 104.867C171.99 103.487 171.102 102.383 169.278 102.383C167.838 102.383 166.902 103.163 166.458 104.291C166.386 104.471 166.482 104.507 166.578 104.555L167.178 104.783C167.298 104.819 167.37 104.771 167.43 104.615C167.742 103.883 168.186 103.367 169.29 103.367C170.322 103.367 170.874 104.003 170.874 104.855C170.874 105.659 170.586 106.103 169.014 106.835C166.794 107.867 166.266 108.791 166.266 110.423V111.275H171.798ZM179.567 108.707C179.567 107.567 178.943 106.943 177.959 106.571C178.643 106.355 179.267 105.791 179.267 104.723V104.531C179.267 103.175 178.283 102.383 176.543 102.383C174.803 102.383 173.831 103.175 173.831 104.531V104.723C173.831 105.791 174.455 106.355 175.127 106.571C174.155 106.943 173.531 107.567 173.531 108.707V108.971C173.531 110.495 174.671 111.407 176.543 111.407C178.415 111.407 179.567 110.495 179.567 108.971V108.707ZM178.187 104.819C178.187 105.695 177.551 106.163 176.543 106.163C175.547 106.163 174.911 105.695 174.911 104.819V104.627C174.911 103.703 175.511 103.319 176.543 103.319C177.587 103.319 178.187 103.703 178.187 104.627V104.819ZM178.451 108.863C178.451 109.883 177.803 110.435 176.543 110.435C175.283 110.435 174.635 109.883 174.635 108.863V108.671C174.635 107.627 175.307 107.087 176.543 107.087C177.791 107.087 178.451 107.627 178.451 108.671V108.863Z" fill="#959595"/>
<circle cx="234.468" cy="108.275" r="12" fill="white"/>
<path d="M232.968 111.275C233.064 111.275 233.1 111.203 233.1 111.119V110.447C233.1 110.375 233.076 110.303 232.968 110.303H228.588V110.039C228.588 109.055 228.828 108.599 230.712 107.711C232.536 106.859 233.16 106.211 233.16 104.867C233.16 103.487 232.272 102.383 230.448 102.383C229.008 102.383 228.072 103.163 227.628 104.291C227.556 104.471 227.652 104.507 227.748 104.555L228.348 104.783C228.468 104.819 228.54 104.771 228.6 104.615C228.912 103.883 229.356 103.367 230.46 103.367C231.492 103.367 232.044 104.003 232.044 104.855C232.044 105.659 231.756 106.103 230.184 106.835C227.964 107.867 227.436 108.791 227.436 110.423V111.275H232.968ZM239.345 105.647C239.345 106.727 238.637 107.435 237.521 107.435C236.321 107.435 235.745 106.643 235.745 105.491V105.215C235.745 104.027 236.465 103.367 237.557 103.367C238.685 103.367 239.345 104.063 239.345 105.275V105.647ZM239.345 108.455C239.345 109.919 238.529 110.423 237.497 110.423C236.585 110.423 236.021 110.039 235.733 109.487C235.661 109.343 235.577 109.355 235.481 109.403L234.893 109.715C234.785 109.775 234.761 109.883 234.845 110.039C235.253 110.819 236.213 111.407 237.533 111.407C239.057 111.407 240.461 110.519 240.461 108.311V105.227C240.461 103.487 239.333 102.383 237.557 102.383C235.709 102.383 234.629 103.631 234.629 105.155V105.503C234.629 107.183 235.661 108.359 237.365 108.359C238.241 108.359 238.973 108.011 239.345 107.423V108.455Z" fill="#959595"/>
<circle cx="295.532" cy="108.275" r="12" fill="white"/>
<path d="M294.109 108.719C294.109 107.447 293.293 106.847 292.501 106.691C293.281 106.511 293.905 105.743 293.905 104.855V104.675C293.905 103.259 293.017 102.383 291.277 102.383C289.945 102.383 289.021 103.079 288.649 104.219C288.589 104.375 288.637 104.435 288.745 104.471L289.345 104.687C289.441 104.723 289.525 104.687 289.573 104.567C289.885 103.775 290.341 103.367 291.277 103.367C292.249 103.367 292.801 103.823 292.801 104.723V104.891C292.801 105.683 292.177 106.247 291.265 106.247H290.677C290.569 106.247 290.557 106.319 290.557 106.391V107.039C290.557 107.111 290.581 107.171 290.677 107.171H291.241C292.357 107.171 292.993 107.783 292.993 108.767V108.875C292.993 109.883 292.249 110.423 291.241 110.423C290.113 110.423 289.525 109.835 289.321 109.103C289.273 108.947 289.141 108.923 289.009 108.983L288.469 109.187C288.337 109.235 288.301 109.319 288.349 109.487C288.649 110.411 289.465 111.407 291.265 111.407C292.849 111.407 294.109 110.399 294.109 108.875V108.719ZM301.486 105.143C301.486 103.391 300.586 102.383 298.594 102.383C296.602 102.383 295.702 103.403 295.702 105.167V108.635C295.702 110.399 296.602 111.407 298.594 111.407C300.586 111.407 301.486 110.375 301.486 108.635V105.143ZM300.382 108.551C300.382 109.787 299.914 110.423 298.594 110.423C297.322 110.423 296.806 109.751 296.806 108.551V105.251C296.806 104.051 297.322 103.367 298.594 103.367C299.914 103.367 300.382 104.051 300.382 105.251V108.551Z" fill="#959595"/>
<circle cx="356.597" cy="108.275" r="12" fill="white"/>
<path d="M355.754 108.719C355.754 107.447 354.938 106.847 354.146 106.691C354.926 106.511 355.55 105.743 355.55 104.855V104.675C355.55 103.259 354.662 102.383 352.922 102.383C351.59 102.383 350.666 103.079 350.294 104.219C350.234 104.375 350.282 104.435 350.39 104.471L350.99 104.687C351.086 104.723 351.17 104.687 351.218 104.567C351.53 103.775 351.986 103.367 352.922 103.367C353.894 103.367 354.446 103.823 354.446 104.723V104.891C354.446 105.683 353.822 106.247 352.91 106.247H352.322C352.214 106.247 352.202 106.319 352.202 106.391V107.039C352.202 107.111 352.226 107.171 352.322 107.171H352.886C354.002 107.171 354.638 107.783 354.638 108.767V108.875C354.638 109.883 353.894 110.423 352.886 110.423C351.758 110.423 351.17 109.835 350.966 109.103C350.918 108.947 350.786 108.923 350.654 108.983L350.114 109.187C349.982 109.235 349.946 109.319 349.994 109.487C350.294 110.411 351.11 111.407 352.91 111.407C354.494 111.407 355.754 110.399 355.754 108.875V108.719ZM362.003 111.275C362.099 111.275 362.135 111.203 362.135 111.131V110.435C362.135 110.363 362.099 110.303 362.003 110.303H360.407V102.503H359.711C359.615 102.647 359.471 102.863 359.291 102.983C358.919 103.211 357.743 103.439 357.371 103.535C357.299 103.547 357.275 103.607 357.287 103.691L357.335 104.231C357.347 104.327 357.395 104.363 357.503 104.363L359.303 104.135V110.303H357.659C357.563 110.303 357.539 110.363 357.539 110.435V111.131C357.539 111.215 357.575 111.275 357.671 111.275H362.003Z" fill="#959595"/>
<circle cx="418.661" cy="108.275" r="12" fill="white"/>
<path d="M417.223 103.911C417.271 103.887 417.323 103.875 417.379 103.875H418.027C418.107 103.875 418.147 103.915 418.147 103.995V112.155C418.147 112.235 418.107 112.275 418.027 112.275H417.415C417.335 112.275 417.295 112.235 417.295 112.155V104.847C417.295 104.831 417.287 104.819 417.271 104.811C417.263 104.803 417.251 104.803 417.235 104.811L415.963 105.327L415.915 105.339C415.867 105.339 415.835 105.307 415.819 105.243L415.759 104.787V104.763C415.759 104.723 415.787 104.683 415.843 104.643L417.223 103.911Z" fill="#373334"/>
</g>
<g clip-path="url(#clip3_2_411)">
<circle cx="51.2749" cy="149.965" r="12" fill="white"/>
<path d="M53.4544 152.965C53.5504 152.965 53.5864 152.893 53.5864 152.809V152.137C53.5864 152.065 53.5624 151.993 53.4544 151.993H49.0744V151.729C49.0744 150.745 49.3144 150.289 51.1984 149.401C53.0224 148.549 53.6464 147.901 53.6464 146.557C53.6464 145.177 52.7584 144.073 50.9344 144.073C49.4944 144.073 48.5584 144.853 48.1144 145.981C48.0424 146.161 48.1384 146.197 48.2344 146.245L48.8344 146.473C48.9544 146.509 49.0264 146.461 49.0864 146.305C49.3984 145.573 49.8424 145.057 50.9464 145.057C51.9784 145.057 52.5304 145.693 52.5304 146.545C52.5304 147.349 52.2424 147.793 50.6704 148.525C48.4504 149.557 47.9224 150.481 47.9224 152.113V152.965H53.4544Z" fill="#373334"/>
<circle cx="112.339" cy="149.965" r="12" fill="white"/>
<path d="M113.911 149.993C114.071 150.385 114.151 150.853 114.151 151.397C114.151 151.837 114.091 152.225 113.971 152.561C113.811 153.041 113.539 153.413 113.155 153.677C112.779 153.933 112.311 154.061 111.751 154.061C111.191 154.061 110.711 153.917 110.311 153.629C109.911 153.333 109.635 152.937 109.483 152.441C109.411 152.217 109.367 151.913 109.351 151.529C109.351 151.449 109.391 151.409 109.471 151.409H110.083C110.163 151.409 110.203 151.449 110.203 151.529C110.219 151.761 110.247 151.977 110.287 152.177C110.375 152.529 110.543 152.809 110.791 153.017C111.047 153.217 111.363 153.317 111.739 153.317C112.459 153.317 112.927 152.997 113.143 152.357C113.239 152.093 113.287 151.765 113.287 151.373C113.287 150.893 113.223 150.501 113.095 150.197C112.839 149.621 112.387 149.333 111.739 149.333C111.619 149.333 111.471 149.377 111.295 149.465C111.263 149.481 111.239 149.489 111.223 149.489C111.191 149.489 111.163 149.469 111.139 149.429L110.827 149.009C110.787 148.945 110.791 148.889 110.839 148.841L112.951 146.369C112.975 146.329 112.967 146.309 112.927 146.309H109.543C109.463 146.309 109.423 146.269 109.423 146.189V145.685C109.423 145.605 109.463 145.565 109.543 145.565H113.983C114.063 145.565 114.103 145.605 114.103 145.685V146.273C114.103 146.313 114.083 146.361 114.043 146.417L112.123 148.721C112.107 148.737 112.103 148.753 112.111 148.769C112.119 148.777 112.135 148.781 112.159 148.781C113.015 148.837 113.599 149.241 113.911 149.993Z" fill="#373334"/>
<circle cx="173.404" cy="149.965" r="12" fill="white"/>
<path d="M175.359 150.881C175.439 150.881 175.479 150.921 175.479 151.001V151.529C175.479 151.609 175.439 151.649 175.359 151.649H174.843C174.811 151.649 174.795 151.665 174.795 151.697V153.845C174.795 153.925 174.755 153.965 174.675 153.965H174.063C173.983 153.965 173.943 153.925 173.943 153.845V151.697C173.943 151.665 173.927 151.649 173.895 151.649H170.307C170.227 151.649 170.187 151.609 170.187 151.529V151.085C170.187 151.045 170.199 150.997 170.223 150.941L172.683 145.649C172.707 145.593 172.751 145.565 172.815 145.565H173.451C173.491 145.565 173.519 145.581 173.535 145.613C173.559 145.637 173.563 145.669 173.547 145.709L171.159 150.821C171.151 150.837 171.151 150.853 171.159 150.869C171.167 150.877 171.179 150.881 171.195 150.881H173.895C173.927 150.881 173.943 150.865 173.943 150.833V148.901C173.943 148.821 173.983 148.781 174.063 148.781H174.675C174.755 148.781 174.795 148.821 174.795 148.901V150.833C174.795 150.865 174.811 150.881 174.843 150.881H175.359Z" fill="#9F0023"/>
<circle cx="234.468" cy="149.965" r="12" fill="white"/>
<path d="M236.346 150.293C236.418 150.645 236.454 151.005 236.454 151.373C236.454 151.765 236.418 152.101 236.346 152.381C236.21 152.893 235.938 153.301 235.53 153.605C235.122 153.901 234.63 154.049 234.054 154.049C233.486 154.049 233.002 153.905 232.602 153.617C232.202 153.329 231.93 152.945 231.786 152.465C231.73 152.289 231.694 152.113 231.678 151.937V151.913C231.678 151.849 231.714 151.817 231.786 151.817H232.422C232.502 151.817 232.546 151.857 232.554 151.937C232.554 151.985 232.57 152.065 232.602 152.177C232.682 152.521 232.846 152.797 233.094 153.005C233.35 153.205 233.666 153.305 234.042 153.305C234.426 153.305 234.746 153.197 235.002 152.981C235.266 152.765 235.438 152.469 235.518 152.093C235.566 151.909 235.59 151.669 235.59 151.373C235.59 151.101 235.57 150.841 235.53 150.593C235.474 150.225 235.314 149.945 235.05 149.753C234.786 149.561 234.458 149.465 234.066 149.465C233.714 149.465 233.398 149.545 233.118 149.705C232.838 149.865 232.658 150.077 232.578 150.341C232.554 150.413 232.51 150.449 232.446 150.449H231.798C231.718 150.449 231.678 150.409 231.678 150.329V145.685C231.678 145.605 231.718 145.565 231.798 145.565H235.998C236.078 145.565 236.118 145.605 236.118 145.685V146.189C236.118 146.269 236.078 146.309 235.998 146.309H232.578C232.546 146.309 232.53 146.325 232.53 146.357L232.518 149.261C232.518 149.277 232.522 149.289 232.53 149.297C232.546 149.305 232.562 149.301 232.578 149.285C232.778 149.101 233.014 148.961 233.286 148.865C233.558 148.761 233.846 148.709 234.15 148.709C234.718 148.709 235.198 148.849 235.59 149.129C235.982 149.401 236.234 149.789 236.346 150.293Z" fill="#373334"/>
<circle cx="295.532" cy="149.965" r="12" fill="white"/>
<path d="M297.272 150.017C297.44 150.377 297.524 150.833 297.524 151.385C297.524 151.881 297.46 152.281 297.332 152.585C297.164 153.049 296.896 153.409 296.528 153.665C296.16 153.921 295.7 154.049 295.148 154.049C294.572 154.049 294.088 153.913 293.696 153.641C293.304 153.369 293.028 152.985 292.868 152.489C292.772 152.169 292.724 151.793 292.724 151.361V147.617C292.724 146.961 292.94 146.441 293.372 146.057C293.804 145.665 294.368 145.469 295.064 145.469C295.744 145.469 296.292 145.657 296.708 146.033C297.124 146.409 297.332 146.905 297.332 147.521V147.689C297.332 147.769 297.292 147.809 297.212 147.809H296.6C296.52 147.809 296.48 147.769 296.48 147.689V147.593C296.48 147.185 296.348 146.853 296.084 146.597C295.82 146.341 295.48 146.213 295.064 146.213C294.632 146.213 294.276 146.349 293.996 146.621C293.716 146.885 293.576 147.237 293.576 147.677V149.441C293.576 149.457 293.584 149.469 293.6 149.477C293.616 149.477 293.628 149.469 293.636 149.453C293.988 148.973 294.52 148.733 295.232 148.733C295.736 148.733 296.156 148.845 296.492 149.069C296.836 149.293 297.096 149.609 297.272 150.017ZM296.528 152.297C296.624 152.049 296.672 151.745 296.672 151.385C296.672 150.969 296.616 150.649 296.504 150.425C296.408 150.129 296.24 149.897 296 149.729C295.76 149.561 295.464 149.477 295.112 149.477C294.76 149.477 294.464 149.565 294.224 149.741C293.984 149.909 293.816 150.145 293.72 150.449C293.624 150.697 293.576 151.021 293.576 151.421C293.576 151.773 293.616 152.065 293.696 152.297C293.792 152.601 293.96 152.845 294.2 153.029C294.448 153.213 294.756 153.305 295.124 153.305C295.468 153.305 295.764 153.221 296.012 153.053C296.26 152.877 296.432 152.625 296.528 152.297Z" fill="#373334"/>
<circle cx="356.597" cy="149.965" r="12" fill="white"/>
<path d="M355.073 153.965C355.033 153.965 355.001 153.953 354.977 153.929C354.961 153.897 354.961 153.861 354.977 153.821L357.749 146.369C357.757 146.353 357.757 146.341 357.749 146.333C357.741 146.317 357.729 146.309 357.713 146.309H354.473C354.441 146.309 354.425 146.325 354.425 146.357V146.909C354.425 146.989 354.385 147.029 354.305 147.029H353.813C353.733 147.029 353.693 146.989 353.693 146.909L353.705 145.685C353.705 145.605 353.745 145.565 353.825 145.565H358.553C358.633 145.565 358.673 145.605 358.673 145.685V146.237C358.673 146.269 358.665 146.317 358.649 146.381L355.889 153.869C355.865 153.933 355.817 153.965 355.745 153.965H355.073Z" fill="#373334"/>
<circle cx="417.661" cy="149.965" r="12" fill="white"/>
<path d="M419.324 150.437C419.476 150.765 419.552 151.157 419.552 151.613C419.552 152.165 419.436 152.633 419.204 153.017C419.012 153.345 418.74 153.601 418.388 153.785C418.036 153.969 417.628 154.061 417.164 154.061C416.684 154.061 416.264 153.969 415.904 153.785C415.544 153.593 415.268 153.317 415.076 152.957C414.852 152.557 414.74 152.105 414.74 151.601C414.74 151.177 414.824 150.777 414.992 150.401C415.176 150.001 415.468 149.701 415.868 149.501C415.908 149.485 415.908 149.465 415.868 149.441C415.604 149.289 415.388 149.085 415.22 148.829C414.98 148.485 414.86 148.093 414.86 147.653C414.86 147.205 414.98 146.797 415.22 146.429C415.412 146.117 415.676 145.877 416.012 145.709C416.356 145.533 416.74 145.445 417.164 145.445C417.604 145.445 417.988 145.533 418.316 145.709C418.644 145.877 418.904 146.117 419.096 146.429C419.328 146.805 419.444 147.213 419.444 147.653C419.444 148.093 419.324 148.493 419.084 148.853C418.94 149.069 418.728 149.265 418.448 149.441C418.408 149.465 418.408 149.485 418.448 149.501C418.856 149.701 419.148 150.013 419.324 150.437ZM415.892 146.945C415.764 147.185 415.7 147.421 415.7 147.653C415.7 147.989 415.784 148.281 415.952 148.529C416.08 148.729 416.244 148.881 416.444 148.985C416.652 149.089 416.888 149.141 417.152 149.141C417.416 149.141 417.652 149.089 417.86 148.985C418.068 148.873 418.236 148.717 418.364 148.517C418.516 148.301 418.592 148.009 418.592 147.641C418.592 147.377 418.532 147.137 418.412 146.921C418.292 146.697 418.124 146.521 417.908 146.393C417.692 146.257 417.436 146.189 417.14 146.189C416.86 146.189 416.612 146.257 416.396 146.393C416.18 146.529 416.012 146.713 415.892 146.945ZM418.4 152.693C418.6 152.389 418.7 152.009 418.7 151.553C418.7 151.177 418.636 150.853 418.508 150.581C418.268 150.053 417.816 149.789 417.152 149.789C416.52 149.789 416.08 150.037 415.832 150.533C415.688 150.789 415.616 151.133 415.616 151.565C415.616 152.013 415.704 152.377 415.88 152.657C416.152 153.097 416.58 153.317 417.164 153.317C417.732 153.317 418.144 153.109 418.4 152.693Z" fill="#373334"/>
</g>
<g clip-path="url(#clip4_2_411)">
<circle cx="51.2749" cy="191.655" r="12" fill="white"/>
<path d="M52.5072 189.027C52.5072 190.107 51.7992 190.815 50.6832 190.815C49.4832 190.815 48.9072 190.023 48.9072 188.871V188.595C48.9072 187.407 49.6272 186.747 50.7192 186.747C51.8472 186.747 52.5072 187.443 52.5072 188.655V189.027ZM52.5072 191.835C52.5072 193.299 51.6912 193.803 50.6592 193.803C49.7472 193.803 49.1832 193.419 48.8952 192.867C48.8232 192.723 48.7392 192.735 48.6432 192.783L48.0552 193.095C47.9472 193.155 47.9232 193.263 48.0072 193.419C48.4152 194.199 49.3752 194.787 50.6952 194.787C52.2192 194.787 53.6232 193.899 53.6232 191.691V188.607C53.6232 186.867 52.4952 185.763 50.7192 185.763C48.8712 185.763 47.7912 187.011 47.7912 188.535V188.883C47.7912 190.563 48.8232 191.739 50.5272 191.739C51.4032 191.739 52.1352 191.391 52.5072 190.803V191.835Z" fill="#373334"/>
<circle cx="112.339" cy="191.655" r="12" fill="white"/>
<path d="M108.509 187.291C108.557 187.267 108.609 187.255 108.665 187.255H109.313C109.393 187.255 109.433 187.295 109.433 187.375V195.535C109.433 195.615 109.393 195.655 109.313 195.655H108.701C108.621 195.655 108.581 195.615 108.581 195.535V188.227C108.581 188.211 108.573 188.199 108.557 188.191C108.549 188.183 108.537 188.183 108.521 188.191L107.249 188.707L107.201 188.719C107.153 188.719 107.121 188.687 107.105 188.623L107.045 188.167V188.143C107.045 188.103 107.073 188.063 107.129 188.023L108.509 187.291ZM113.916 195.775C113.148 195.775 112.536 195.555 112.08 195.115C111.624 194.675 111.396 194.087 111.396 193.351V189.559C111.396 188.823 111.624 188.239 112.08 187.807C112.536 187.367 113.148 187.147 113.916 187.147C114.692 187.147 115.312 187.367 115.776 187.807C116.24 188.247 116.472 188.831 116.472 189.559V193.351C116.472 194.087 116.24 194.675 115.776 195.115C115.312 195.555 114.692 195.775 113.916 195.775ZM113.916 195.031C114.428 195.031 114.84 194.883 115.152 194.587C115.464 194.291 115.62 193.895 115.62 193.399V189.523C115.62 189.035 115.464 188.643 115.152 188.347C114.848 188.051 114.436 187.903 113.916 187.903C113.412 187.903 113.008 188.051 112.704 188.347C112.4 188.643 112.248 189.035 112.248 189.523V193.399C112.248 193.895 112.4 194.291 112.704 194.587C113.008 194.883 113.412 195.031 113.916 195.031Z" fill="#373334"/>
<circle cx="173.404" cy="191.655" r="12" fill="white"/>
<path d="M170.851 187.291C170.899 187.267 170.951 187.255 171.007 187.255H171.655C171.735 187.255 171.775 187.295 171.775 187.375V195.535C171.775 195.615 171.735 195.655 171.655 195.655H171.043C170.963 195.655 170.923 195.615 170.923 195.535V188.227C170.923 188.211 170.915 188.199 170.899 188.191C170.891 188.183 170.879 188.183 170.863 188.191L169.591 188.707L169.543 188.719C169.495 188.719 169.463 188.687 169.447 188.623L169.387 188.167V188.143C169.387 188.103 169.415 188.063 169.471 188.023L170.851 187.291ZM175.081 187.291C175.129 187.267 175.181 187.255 175.237 187.255H175.885C175.965 187.255 176.005 187.295 176.005 187.375V195.535C176.005 195.615 175.965 195.655 175.885 195.655H175.273C175.193 195.655 175.153 195.615 175.153 195.535V188.227C175.153 188.211 175.145 188.199 175.129 188.191C175.121 188.183 175.109 188.183 175.093 188.191L173.821 188.707L173.773 188.719C173.725 188.719 173.693 188.687 173.677 188.623L173.617 188.167V188.143C173.617 188.103 173.645 188.063 173.701 188.023L175.081 187.291Z" fill="#373334"/>
<circle cx="234.468" cy="191.655" r="11.5" fill="white" stroke="#373334"/>
<path d="M230.814 187.291C230.862 187.267 230.914 187.255 230.97 187.255H231.618C231.698 187.255 231.738 187.295 231.738 187.375V195.535C231.738 195.615 231.698 195.655 231.618 195.655H231.006C230.926 195.655 230.886 195.615 230.886 195.535V188.227C230.886 188.211 230.878 188.199 230.862 188.191C230.854 188.183 230.842 188.183 230.826 188.191L229.554 188.707L229.506 188.719C229.458 188.719 229.426 188.687 229.41 188.623L229.35 188.167V188.143C229.35 188.103 229.378 188.063 229.434 188.023L230.814 187.291ZM234.673 194.851C234.649 194.891 234.657 194.911 234.697 194.911H238.465C238.545 194.911 238.585 194.951 238.585 195.031V195.535C238.585 195.615 238.545 195.655 238.465 195.655H233.677C233.597 195.655 233.557 195.615 233.557 195.535V195.031C233.557 194.975 233.577 194.927 233.617 194.887C233.889 194.567 234.501 193.815 235.453 192.631L236.341 191.527C237.093 190.575 237.469 189.835 237.469 189.307C237.469 188.883 237.325 188.543 237.037 188.287C236.749 188.031 236.373 187.903 235.909 187.903C235.453 187.903 235.085 188.035 234.805 188.299C234.525 188.555 234.389 188.895 234.397 189.319V189.691C234.397 189.771 234.357 189.811 234.277 189.811H233.653C233.573 189.811 233.533 189.771 233.533 189.691V189.211C233.549 188.595 233.777 188.099 234.217 187.723C234.665 187.347 235.229 187.159 235.909 187.159C236.389 187.159 236.813 187.251 237.181 187.435C237.549 187.619 237.833 187.875 238.033 188.203C238.233 188.523 238.333 188.887 238.333 189.295C238.333 189.975 237.957 190.795 237.205 191.755C236.813 192.259 236.057 193.187 234.937 194.539L234.673 194.851Z" fill="#373334"/>
<circle cx="295.532" cy="191.655" r="12" fill="white"/>
<path d="M292.007 187.291C292.055 187.267 292.107 187.255 292.163 187.255H292.811C292.891 187.255 292.931 187.295 292.931 187.375V195.535C292.931 195.615 292.891 195.655 292.811 195.655H292.199C292.119 195.655 292.079 195.615 292.079 195.535V188.227C292.079 188.211 292.071 188.199 292.055 188.191C292.047 188.183 292.035 188.183 292.019 188.191L290.747 188.707L290.699 188.719C290.651 188.719 290.619 188.687 290.603 188.623L290.543 188.167V188.143C290.543 188.103 290.571 188.063 290.627 188.023L292.007 187.291ZM299.202 191.683C299.362 192.075 299.442 192.543 299.442 193.087C299.442 193.527 299.382 193.915 299.262 194.251C299.102 194.731 298.83 195.103 298.446 195.367C298.07 195.623 297.602 195.751 297.042 195.751C296.482 195.751 296.002 195.607 295.602 195.319C295.202 195.023 294.926 194.627 294.774 194.131C294.702 193.907 294.658 193.603 294.642 193.219C294.642 193.139 294.682 193.099 294.762 193.099H295.374C295.454 193.099 295.494 193.139 295.494 193.219C295.51 193.451 295.538 193.667 295.578 193.867C295.666 194.219 295.834 194.499 296.082 194.707C296.338 194.907 296.654 195.007 297.03 195.007C297.75 195.007 298.218 194.687 298.434 194.047C298.53 193.783 298.578 193.455 298.578 193.063C298.578 192.583 298.514 192.191 298.386 191.887C298.13 191.311 297.678 191.023 297.03 191.023C296.91 191.023 296.762 191.067 296.586 191.155C296.554 191.171 296.53 191.179 296.514 191.179C296.482 191.179 296.454 191.159 296.43 191.119L296.118 190.699C296.078 190.635 296.082 190.579 296.13 190.531L298.242 188.059C298.266 188.019 298.258 187.999 298.218 187.999H294.834C294.754 187.999 294.714 187.959 294.714 187.879V187.375C294.714 187.295 294.754 187.255 294.834 187.255H299.274C299.354 187.255 299.394 187.295 299.394 187.375V187.963C299.394 188.003 299.374 188.051 299.334 188.107L297.414 190.411C297.398 190.427 297.394 190.443 297.402 190.459C297.41 190.467 297.426 190.471 297.45 190.471C298.306 190.527 298.89 190.931 299.202 191.683Z" fill="#373334"/>
<circle cx="356.597" cy="191.655" r="12" fill="white"/>
<path d="M352.854 187.291C352.902 187.267 352.954 187.255 353.01 187.255H353.658C353.738 187.255 353.778 187.295 353.778 187.375V195.535C353.778 195.615 353.738 195.655 353.658 195.655H353.046C352.966 195.655 352.926 195.615 352.926 195.535V188.227C352.926 188.211 352.918 188.199 352.902 188.191C352.894 188.183 352.882 188.183 352.866 188.191L351.594 188.707L351.546 188.719C351.498 188.719 351.466 188.687 351.45 188.623L351.39 188.167V188.143C351.39 188.103 351.418 188.063 351.474 188.023L352.854 187.291ZM360.65 192.571C360.73 192.571 360.77 192.611 360.77 192.691V193.219C360.77 193.299 360.73 193.339 360.65 193.339H360.134C360.102 193.339 360.086 193.355 360.086 193.387V195.535C360.086 195.615 360.046 195.655 359.966 195.655H359.354C359.274 195.655 359.234 195.615 359.234 195.535V193.387C359.234 193.355 359.218 193.339 359.186 193.339H355.598C355.518 193.339 355.478 193.299 355.478 193.219V192.775C355.478 192.735 355.49 192.687 355.514 192.631L357.974 187.339C357.998 187.283 358.042 187.255 358.106 187.255H358.742C358.782 187.255 358.81 187.271 358.826 187.303C358.85 187.327 358.854 187.359 358.838 187.399L356.45 192.511C356.442 192.527 356.442 192.543 356.45 192.559C356.458 192.567 356.47 192.571 356.486 192.571H359.186C359.218 192.571 359.234 192.555 359.234 192.523V190.591C359.234 190.511 359.274 190.471 359.354 190.471H359.966C360.046 190.471 360.086 190.511 360.086 190.591V192.523C360.086 192.555 360.102 192.571 360.134 192.571H360.65Z" fill="#373334"/>
<circle cx="417.661" cy="191.655" r="12" fill="white"/>
<path d="M414.141 187.291C414.189 187.267 414.241 187.255 414.297 187.255H414.945C415.025 187.255 415.065 187.295 415.065 187.375V195.535C415.065 195.615 415.025 195.655 414.945 195.655H414.333C414.253 195.655 414.213 195.615 414.213 195.535V188.227C414.213 188.211 414.205 188.199 414.189 188.191C414.181 188.183 414.169 188.183 414.153 188.191L412.881 188.707L412.833 188.719C412.785 188.719 412.753 188.687 412.737 188.623L412.677 188.167V188.143C412.677 188.103 412.705 188.063 412.761 188.023L414.141 187.291ZM421.637 191.983C421.709 192.335 421.745 192.695 421.745 193.063C421.745 193.455 421.709 193.791 421.637 194.071C421.501 194.583 421.229 194.991 420.821 195.295C420.413 195.591 419.921 195.739 419.345 195.739C418.777 195.739 418.293 195.595 417.893 195.307C417.493 195.019 417.221 194.635 417.077 194.155C417.021 193.979 416.985 193.803 416.969 193.627V193.603C416.969 193.539 417.005 193.507 417.077 193.507H417.713C417.793 193.507 417.837 193.547 417.845 193.627C417.845 193.675 417.861 193.755 417.893 193.867C417.973 194.211 418.137 194.487 418.385 194.695C418.641 194.895 418.957 194.995 419.333 194.995C419.717 194.995 420.037 194.887 420.293 194.671C420.557 194.455 420.729 194.159 420.809 193.783C420.857 193.599 420.881 193.359 420.881 193.063C420.881 192.791 420.861 192.531 420.821 192.283C420.765 191.915 420.605 191.635 420.341 191.443C420.077 191.251 419.749 191.155 419.357 191.155C419.005 191.155 418.689 191.235 418.409 191.395C418.129 191.555 417.949 191.767 417.869 192.031C417.845 192.103 417.801 192.139 417.737 192.139H417.089C417.009 192.139 416.969 192.099 416.969 192.019V187.375C416.969 187.295 417.009 187.255 417.089 187.255H421.289C421.369 187.255 421.409 187.295 421.409 187.375V187.879C421.409 187.959 421.369 187.999 421.289 187.999H417.869C417.837 187.999 417.821 188.015 417.821 188.047L417.809 190.951C417.809 190.967 417.813 190.979 417.821 190.987C417.837 190.995 417.853 190.991 417.869 190.975C418.069 190.791 418.305 190.651 418.577 190.555C418.849 190.451 419.137 190.399 419.441 190.399C420.009 190.399 420.489 190.539 420.881 190.819C421.273 191.091 421.525 191.479 421.637 191.983Z" fill="#373334"/>
</g>
<g clip-path="url(#clip5_2_411)">
<circle cx="51.2749" cy="233.345" r="12" fill="white"/>
<path d="M49.3976 236.345C49.4936 236.345 49.5296 236.273 49.5296 236.201V235.505C49.5296 235.433 49.4936 235.373 49.3976 235.373H47.8016V227.573H47.1056C47.0096 227.717 46.8656 227.933 46.6856 228.053C46.3136 228.281 45.1376 228.509 44.7656 228.605C44.6936 228.617 44.6696 228.677 44.6816 228.761L44.7296 229.301C44.7416 229.397 44.7896 229.433 44.8976 229.433L46.6976 229.205V235.373H45.0536C44.9576 235.373 44.9336 235.433 44.9336 235.505V236.201C44.9336 236.285 44.9696 236.345 45.0656 236.345H49.3976ZM56.8668 233.321C56.8668 231.593 55.7868 230.585 54.1908 230.585C53.2308 230.585 52.4868 231.017 52.1508 231.557L52.1268 231.545V230.705C52.1388 229.109 52.8108 228.437 54.0468 228.437C54.9468 228.437 55.4388 228.929 55.6668 229.505C55.7388 229.685 55.7988 229.709 55.8948 229.661L56.5308 229.433C56.6508 229.385 56.7228 229.337 56.6628 229.169C56.4108 228.461 55.7028 227.453 54.0468 227.453C52.1148 227.453 51.0228 228.689 51.0228 230.705V233.597C51.0228 235.265 52.0668 236.477 54.0228 236.477C55.6308 236.477 56.8668 235.373 56.8668 233.717V233.321ZM55.7628 233.633C55.7628 234.737 55.0548 235.493 54.0348 235.493C52.7628 235.493 52.1388 234.701 52.1388 233.633V233.405C52.1388 232.253 52.9308 231.509 54.0708 231.509C55.1628 231.509 55.7628 232.229 55.7628 233.393V233.633Z" fill="#373334"/>
<circle cx="112.339" cy="233.345" r="12" fill="white"/>
<path d="M109.066 228.981C109.114 228.957 109.166 228.945 109.222 228.945H109.87C109.95 228.945 109.99 228.985 109.99 229.065V237.225C109.99 237.305 109.95 237.345 109.87 237.345H109.258C109.178 237.345 109.138 237.305 109.138 237.225V229.917C109.138 229.901 109.13 229.889 109.114 229.881C109.106 229.873 109.094 229.873 109.078 229.881L107.806 230.397L107.758 230.409C107.71 230.409 107.678 230.377 107.662 230.313L107.602 229.857V229.833C107.602 229.793 107.63 229.753 107.686 229.713L109.066 228.981ZM112.913 237.345C112.873 237.345 112.841 237.333 112.817 237.309C112.801 237.277 112.801 237.241 112.817 237.201L115.589 229.749C115.597 229.733 115.597 229.721 115.589 229.713C115.581 229.697 115.569 229.689 115.553 229.689H112.313C112.281 229.689 112.265 229.705 112.265 229.737V230.289C112.265 230.369 112.225 230.409 112.145 230.409H111.653C111.573 230.409 111.533 230.369 111.533 230.289L111.545 229.065C111.545 228.985 111.585 228.945 111.665 228.945H116.393C116.473 228.945 116.513 228.985 116.513 229.065V229.617C116.513 229.649 116.505 229.697 116.489 229.761L113.729 237.249C113.705 237.313 113.657 237.345 113.585 237.345H112.913Z" fill="#373334"/>
<circle cx="173.404" cy="233.345" r="12" fill="white"/>
<path d="M169.837 228.981C169.885 228.957 169.937 228.945 169.993 228.945H170.641C170.721 228.945 170.761 228.985 170.761 229.065V237.225C170.761 237.305 170.721 237.345 170.641 237.345H170.029C169.949 237.345 169.909 237.305 169.909 237.225V229.917C169.909 229.901 169.901 229.889 169.885 229.881C169.877 229.873 169.865 229.873 169.849 229.881L168.577 230.397L168.529 230.409C168.481 230.409 168.449 230.377 168.433 230.313L168.373 229.857V229.833C168.373 229.793 168.401 229.753 168.457 229.713L169.837 228.981ZM177.164 233.817C177.316 234.145 177.392 234.537 177.392 234.993C177.392 235.545 177.276 236.013 177.044 236.397C176.852 236.725 176.58 236.981 176.228 237.165C175.876 237.349 175.468 237.441 175.004 237.441C174.524 237.441 174.104 237.349 173.744 237.165C173.384 236.973 173.108 236.697 172.916 236.337C172.692 235.937 172.58 235.485 172.58 234.981C172.58 234.557 172.664 234.157 172.832 233.781C173.016 233.381 173.308 233.081 173.708 232.881C173.748 232.865 173.748 232.845 173.708 232.821C173.444 232.669 173.228 232.465 173.06 232.209C172.82 231.865 172.7 231.473 172.7 231.033C172.7 230.585 172.82 230.177 173.06 229.809C173.252 229.497 173.516 229.257 173.852 229.089C174.196 228.913 174.58 228.825 175.004 228.825C175.444 228.825 175.828 228.913 176.156 229.089C176.484 229.257 176.744 229.497 176.936 229.809C177.168 230.185 177.284 230.593 177.284 231.033C177.284 231.473 177.164 231.873 176.924 232.233C176.78 232.449 176.568 232.645 176.288 232.821C176.248 232.845 176.248 232.865 176.288 232.881C176.696 233.081 176.988 233.393 177.164 233.817ZM173.732 230.325C173.604 230.565 173.54 230.801 173.54 231.033C173.54 231.369 173.624 231.661 173.792 231.909C173.92 232.109 174.084 232.261 174.284 232.365C174.492 232.469 174.728 232.521 174.992 232.521C175.256 232.521 175.492 232.469 175.7 232.365C175.908 232.253 176.076 232.097 176.204 231.897C176.356 231.681 176.432 231.389 176.432 231.021C176.432 230.757 176.372 230.517 176.252 230.301C176.132 230.077 175.964 229.901 175.748 229.773C175.532 229.637 175.276 229.569 174.98 229.569C174.7 229.569 174.452 229.637 174.236 229.773C174.02 229.909 173.852 230.093 173.732 230.325ZM176.24 236.073C176.44 235.769 176.54 235.389 176.54 234.933C176.54 234.557 176.476 234.233 176.348 233.961C176.108 233.433 175.656 233.169 174.992 233.169C174.36 233.169 173.92 233.417 173.672 233.913C173.528 234.169 173.456 234.513 173.456 234.945C173.456 235.393 173.544 235.757 173.72 236.037C173.992 236.477 174.42 236.697 175.004 236.697C175.572 236.697 175.984 236.489 176.24 236.073Z" fill="#373334"/>
<circle cx="234.468" cy="233.345" r="12" fill="white"/>
<path d="M230.901 228.981C230.949 228.957 231.001 228.945 231.057 228.945H231.705C231.785 228.945 231.825 228.985 231.825 229.065V237.225C231.825 237.305 231.785 237.345 231.705 237.345H231.093C231.013 237.345 230.973 237.305 230.973 237.225V229.917C230.973 229.901 230.965 229.889 230.949 229.881C230.941 229.873 230.929 229.873 230.913 229.881L229.641 230.397L229.593 230.409C229.545 230.409 229.513 230.377 229.497 230.313L229.437 229.857V229.833C229.437 229.793 229.465 229.753 229.521 229.713L230.901 228.981ZM238.265 230.421C238.361 230.741 238.409 231.117 238.409 231.549V235.293C238.409 235.949 238.193 236.473 237.761 236.865C237.329 237.249 236.765 237.441 236.069 237.441C235.397 237.441 234.849 237.253 234.425 236.877C234.009 236.493 233.801 235.997 233.801 235.389V235.221C233.801 235.141 233.841 235.101 233.921 235.101H234.533C234.613 235.101 234.653 235.141 234.653 235.221V235.317C234.653 235.725 234.785 236.057 235.049 236.313C235.313 236.569 235.653 236.697 236.069 236.697C236.501 236.697 236.857 236.565 237.137 236.301C237.417 236.029 237.557 235.673 237.557 235.233V233.481C237.557 233.465 237.549 233.457 237.533 233.457C237.517 233.449 237.505 233.453 237.497 233.469C237.145 233.941 236.617 234.177 235.913 234.177C235.409 234.177 234.985 234.065 234.641 233.841C234.305 233.617 234.049 233.301 233.873 232.893C233.705 232.557 233.621 232.101 233.621 231.525C233.621 231.037 233.681 230.637 233.801 230.325C233.969 229.861 234.237 229.501 234.605 229.245C234.981 228.989 235.441 228.861 235.985 228.861C236.561 228.861 237.045 229.001 237.437 229.281C237.837 229.553 238.113 229.933 238.265 230.421ZM236.021 233.433C236.373 233.433 236.669 233.349 236.909 233.181C237.157 233.005 237.329 232.765 237.425 232.461C237.513 232.229 237.557 231.905 237.557 231.489C237.557 231.145 237.521 230.853 237.449 230.613C237.353 230.309 237.181 230.065 236.933 229.881C236.685 229.697 236.381 229.605 236.021 229.605C235.677 229.605 235.381 229.693 235.133 229.869C234.885 230.037 234.709 230.285 234.605 230.613C234.517 230.837 234.473 231.141 234.473 231.525C234.473 231.933 234.525 232.253 234.629 232.485C234.725 232.773 234.893 233.005 235.133 233.181C235.373 233.349 235.669 233.433 236.021 233.433Z" fill="#373334"/>
<circle cx="295.532" cy="233.345" r="12" fill="white"/>
<path d="M290.247 236.541C290.223 236.581 290.231 236.601 290.271 236.601H294.039C294.119 236.601 294.159 236.641 294.159 236.721V237.225C294.159 237.305 294.119 237.345 294.039 237.345H289.251C289.171 237.345 289.131 237.305 289.131 237.225V236.721C289.131 236.665 289.151 236.617 289.191 236.577C289.463 236.257 290.075 235.505 291.027 234.321L291.915 233.217C292.667 232.265 293.043 231.525 293.043 230.997C293.043 230.573 292.899 230.233 292.611 229.977C292.323 229.721 291.947 229.593 291.483 229.593C291.027 229.593 290.659 229.725 290.379 229.989C290.099 230.245 289.963 230.585 289.971 231.009V231.381C289.971 231.461 289.931 231.501 289.851 231.501H289.227C289.147 231.501 289.107 231.461 289.107 231.381V230.901C289.123 230.285 289.351 229.789 289.791 229.413C290.239 229.037 290.803 228.849 291.483 228.849C291.963 228.849 292.387 228.941 292.755 229.125C293.123 229.309 293.407 229.565 293.607 229.893C293.807 230.213 293.907 230.577 293.907 230.985C293.907 231.665 293.531 232.485 292.779 233.445C292.387 233.949 291.631 234.877 290.511 236.229L290.247 236.541ZM298.228 237.465C297.46 237.465 296.848 237.245 296.392 236.805C295.936 236.365 295.708 235.777 295.708 235.041V231.249C295.708 230.513 295.936 229.929 296.392 229.497C296.848 229.057 297.46 228.837 298.228 228.837C299.004 228.837 299.624 229.057 300.088 229.497C300.552 229.937 300.784 230.521 300.784 231.249V235.041C300.784 235.777 300.552 236.365 300.088 236.805C299.624 237.245 299.004 237.465 298.228 237.465ZM298.228 236.721C298.74 236.721 299.152 236.573 299.464 236.277C299.776 235.981 299.932 235.585 299.932 235.089V231.213C299.932 230.725 299.776 230.333 299.464 230.037C299.16 229.741 298.748 229.593 298.228 229.593C297.724 229.593 297.32 229.741 297.016 230.037C296.712 230.333 296.56 230.725 296.56 231.213V235.089C296.56 235.585 296.712 235.981 297.016 236.277C297.32 236.573 297.724 236.721 298.228 236.721Z" fill="#373334"/>
<circle cx="356.597" cy="233.345" r="12" fill="white"/>
<path d="M352.688 236.541C352.664 236.581 352.672 236.601 352.712 236.601H356.48C356.56 236.601 356.6 236.641 356.6 236.721V237.225C356.6 237.305 356.56 237.345 356.48 237.345H351.692C351.612 237.345 351.572 237.305 351.572 237.225V236.721C351.572 236.665 351.592 236.617 351.632 236.577C351.904 236.257 352.516 235.505 353.468 234.321L354.356 233.217C355.108 232.265 355.484 231.525 355.484 230.997C355.484 230.573 355.34 230.233 355.052 229.977C354.764 229.721 354.388 229.593 353.924 229.593C353.468 229.593 353.1 229.725 352.82 229.989C352.54 230.245 352.404 230.585 352.412 231.009V231.381C352.412 231.461 352.372 231.501 352.292 231.501H351.668C351.588 231.501 351.548 231.461 351.548 231.381V230.901C351.564 230.285 351.792 229.789 352.232 229.413C352.68 229.037 353.244 228.849 353.924 228.849C354.404 228.849 354.828 228.941 355.196 229.125C355.564 229.309 355.848 229.565 356.048 229.893C356.248 230.213 356.348 230.577 356.348 230.985C356.348 231.665 355.972 232.485 355.22 233.445C354.828 233.949 354.072 234.877 352.952 236.229L352.688 236.541ZM359.294 228.981C359.342 228.957 359.394 228.945 359.45 228.945H360.098C360.178 228.945 360.218 228.985 360.218 229.065V237.225C360.218 237.305 360.178 237.345 360.098 237.345H359.486C359.406 237.345 359.366 237.305 359.366 237.225V229.917C359.366 229.901 359.358 229.889 359.342 229.881C359.334 229.873 359.322 229.873 359.306 229.881L358.034 230.397L357.986 230.409C357.938 230.409 357.906 230.377 357.89 230.313L357.83 229.857V229.833C357.83 229.793 357.858 229.753 357.914 229.713L359.294 228.981Z" fill="#373334"/>
<circle cx="417.661" cy="233.345" r="12" fill="white"/>
<path d="M416.196 236.345C416.292 236.345 416.328 236.273 416.328 236.189V235.517C416.328 235.445 416.304 235.373 416.196 235.373H411.816V235.109C411.816 234.125 412.056 233.669 413.94 232.781C415.764 231.929 416.388 231.281 416.388 229.937C416.388 228.557 415.5 227.453 413.676 227.453C412.236 227.453 411.3 228.233 410.856 229.361C410.784 229.541 410.88 229.577 410.976 229.625L411.576 229.853C411.696 229.889 411.768 229.841 411.828 229.685C412.14 228.953 412.584 228.437 413.688 228.437C414.72 228.437 415.272 229.073 415.272 229.925C415.272 230.729 414.984 231.173 413.412 231.905C411.192 232.937 410.664 233.861 410.664 235.493V236.345H416.196ZM423.485 236.345C423.581 236.345 423.617 236.273 423.617 236.189V235.517C423.617 235.445 423.593 235.373 423.485 235.373H419.105V235.109C419.105 234.125 419.345 233.669 421.229 232.781C423.053 231.929 423.677 231.281 423.677 229.937C423.677 228.557 422.789 227.453 420.965 227.453C419.525 227.453 418.589 228.233 418.145 229.361C418.073 229.541 418.169 229.577 418.265 229.625L418.865 229.853C418.985 229.889 419.057 229.841 419.117 229.685C419.429 228.953 419.873 228.437 420.977 228.437C422.009 228.437 422.561 229.073 422.561 229.925C422.561 230.729 422.273 231.173 420.701 231.905C418.481 232.937 417.953 233.861 417.953 235.493V236.345H423.485Z" fill="#373334"/>
</g>
<g clip-path="url(#clip6_2_411)">
<circle cx="51.2749" cy="275.035" r="12" fill="white"/>
<path d="M49.8919 278.035C49.9879 278.035 50.0239 277.963 50.0239 277.879V277.207C50.0239 277.135 49.9999 277.063 49.8919 277.063H45.5119V276.799C45.5119 275.815 45.7519 275.359 47.6359 274.471C49.4599 273.619 50.0839 272.971 50.0839 271.627C50.0839 270.247 49.1959 269.143 47.3719 269.143C45.9319 269.143 44.9959 269.923 44.5519 271.051C44.4799 271.231 44.5759 271.267 44.6719 271.315L45.2719 271.543C45.3919 271.579 45.4639 271.531 45.5239 271.375C45.8359 270.643 46.2799 270.127 47.3839 270.127C48.4159 270.127 48.9679 270.763 48.9679 271.615C48.9679 272.419 48.6799 272.863 47.1079 273.595C44.8879 274.627 44.3599 275.551 44.3599 277.183V278.035H49.8919ZM57.2169 275.479C57.2169 274.207 56.4009 273.607 55.6089 273.451C56.3889 273.271 57.0129 272.503 57.0129 271.615V271.435C57.0129 270.019 56.1249 269.143 54.3849 269.143C53.0529 269.143 52.1289 269.839 51.7569 270.979C51.6969 271.135 51.7449 271.195 51.8529 271.231L52.4529 271.447C52.5489 271.483 52.6329 271.447 52.6809 271.327C52.9929 270.535 53.4489 270.127 54.3849 270.127C55.3569 270.127 55.9089 270.583 55.9089 271.483V271.651C55.9089 272.443 55.2849 273.007 54.3729 273.007H53.7849C53.6769 273.007 53.6649 273.079 53.6649 273.151V273.799C53.6649 273.871 53.6889 273.931 53.7849 273.931H54.3489C55.4649 273.931 56.1009 274.543 56.1009 275.527V275.635C56.1009 276.643 55.3569 277.183 54.3489 277.183C53.2209 277.183 52.6329 276.595 52.4289 275.863C52.3809 275.707 52.2489 275.683 52.1169 275.743L51.5769 275.947C51.4449 275.995 51.4089 276.079 51.4569 276.247C51.7569 277.171 52.5729 278.167 54.3729 278.167C55.9569 278.167 57.2169 277.159 57.2169 275.635V275.479Z" fill="#373334"/>
<circle cx="112.339" cy="275.035" r="12" fill="white"/>
<path d="M107.142 278.231C107.118 278.271 107.126 278.291 107.166 278.291H110.934C111.014 278.291 111.054 278.331 111.054 278.411V278.915C111.054 278.995 111.014 279.035 110.934 279.035H106.146C106.066 279.035 106.026 278.995 106.026 278.915V278.411C106.026 278.355 106.046 278.307 106.086 278.267C106.358 277.947 106.97 277.195 107.922 276.011L108.81 274.907C109.562 273.955 109.938 273.215 109.938 272.687C109.938 272.263 109.794 271.923 109.506 271.667C109.218 271.411 108.842 271.283 108.378 271.283C107.922 271.283 107.554 271.415 107.274 271.679C106.994 271.935 106.858 272.275 106.866 272.699V273.071C106.866 273.151 106.826 273.191 106.746 273.191H106.122C106.042 273.191 106.002 273.151 106.002 273.071V272.591C106.018 271.975 106.246 271.479 106.686 271.103C107.134 270.727 107.698 270.539 108.378 270.539C108.858 270.539 109.282 270.631 109.65 270.815C110.018 270.999 110.302 271.255 110.502 271.583C110.702 271.903 110.802 272.267 110.802 272.675C110.802 273.355 110.426 274.175 109.674 275.135C109.282 275.639 108.526 276.567 107.406 277.919L107.142 278.231ZM117.511 275.951C117.591 275.951 117.631 275.991 117.631 276.071V276.599C117.631 276.679 117.591 276.719 117.511 276.719H116.995C116.963 276.719 116.947 276.735 116.947 276.767V278.915C116.947 278.995 116.907 279.035 116.827 279.035H116.215C116.135 279.035 116.095 278.995 116.095 278.915V276.767C116.095 276.735 116.079 276.719 116.047 276.719H112.459C112.379 276.719 112.339 276.679 112.339 276.599V276.155C112.339 276.115 112.351 276.067 112.375 276.011L114.835 270.719C114.859 270.663 114.903 270.635 114.967 270.635H115.603C115.643 270.635 115.671 270.651 115.687 270.683C115.711 270.707 115.715 270.739 115.699 270.779L113.311 275.891C113.303 275.907 113.303 275.923 113.311 275.939C113.319 275.947 113.331 275.951 113.347 275.951H116.047C116.079 275.951 116.095 275.935 116.095 275.903V273.971C116.095 273.891 116.135 273.851 116.215 273.851H116.827C116.907 273.851 116.947 273.891 116.947 273.971V275.903C116.947 275.935 116.963 275.951 116.995 275.951H117.511Z" fill="#373334"/>
<circle cx="173.404" cy="275.035" r="12" fill="white"/>
<path d="M168.429 278.231C168.405 278.271 168.413 278.291 168.453 278.291H172.221C172.301 278.291 172.341 278.331 172.341 278.411V278.915C172.341 278.995 172.301 279.035 172.221 279.035H167.433C167.353 279.035 167.313 278.995 167.313 278.915V278.411C167.313 278.355 167.333 278.307 167.373 278.267C167.645 277.947 168.257 277.195 169.209 276.011L170.097 274.907C170.849 273.955 171.225 273.215 171.225 272.687C171.225 272.263 171.081 271.923 170.793 271.667C170.505 271.411 170.129 271.283 169.665 271.283C169.209 271.283 168.841 271.415 168.561 271.679C168.281 271.935 168.145 272.275 168.153 272.699V273.071C168.153 273.151 168.113 273.191 168.033 273.191H167.409C167.329 273.191 167.289 273.151 167.289 273.071V272.591C167.305 271.975 167.533 271.479 167.973 271.103C168.421 270.727 168.985 270.539 169.665 270.539C170.145 270.539 170.569 270.631 170.937 270.815C171.305 270.999 171.589 271.255 171.789 271.583C171.989 271.903 172.089 272.267 172.089 272.675C172.089 273.355 171.713 274.175 170.961 275.135C170.569 275.639 169.813 276.567 168.693 277.919L168.429 278.231ZM178.498 275.363C178.57 275.715 178.606 276.075 178.606 276.443C178.606 276.835 178.57 277.171 178.498 277.451C178.362 277.963 178.09 278.371 177.682 278.675C177.274 278.971 176.782 279.119 176.206 279.119C175.638 279.119 175.154 278.975 174.754 278.687C174.354 278.399 174.082 278.015 173.938 277.535C173.882 277.359 173.846 277.183 173.83 277.007V276.983C173.83 276.919 173.866 276.887 173.938 276.887H174.574C174.654 276.887 174.698 276.927 174.706 277.007C174.706 277.055 174.722 277.135 174.754 277.247C174.834 277.591 174.998 277.867 175.246 278.075C175.502 278.275 175.818 278.375 176.194 278.375C176.578 278.375 176.898 278.267 177.154 278.051C177.418 277.835 177.59 277.539 177.67 277.163C177.718 276.979 177.742 276.739 177.742 276.443C177.742 276.171 177.722 275.911 177.682 275.663C177.626 275.295 177.466 275.015 177.202 274.823C176.938 274.631 176.61 274.535 176.218 274.535C175.866 274.535 175.55 274.615 175.27 274.775C174.99 274.935 174.81 275.147 174.73 275.411C174.706 275.483 174.662 275.519 174.598 275.519H173.95C173.87 275.519 173.83 275.479 173.83 275.399V270.755C173.83 270.675 173.87 270.635 173.95 270.635H178.15C178.23 270.635 178.27 270.675 178.27 270.755V271.259C178.27 271.339 178.23 271.379 178.15 271.379H174.73C174.698 271.379 174.682 271.395 174.682 271.427L174.67 274.331C174.67 274.347 174.674 274.359 174.682 274.367C174.698 274.375 174.714 274.371 174.73 274.355C174.93 274.171 175.166 274.031 175.438 273.935C175.71 273.831 175.998 273.779 176.302 273.779C176.87 273.779 177.35 273.919 177.742 274.199C178.134 274.471 178.386 274.859 178.498 275.363Z" fill="#373334"/>
<circle cx="234.468" cy="275.035" r="12" fill="white"/>
<path d="M229.487 278.231C229.463 278.271 229.471 278.291 229.511 278.291H233.279C233.359 278.291 233.399 278.331 233.399 278.411V278.915C233.399 278.995 233.359 279.035 233.279 279.035H228.491C228.411 279.035 228.371 278.995 228.371 278.915V278.411C228.371 278.355 228.391 278.307 228.431 278.267C228.703 277.947 229.315 277.195 230.267 276.011L231.155 274.907C231.907 273.955 232.283 273.215 232.283 272.687C232.283 272.263 232.139 271.923 231.851 271.667C231.563 271.411 231.187 271.283 230.723 271.283C230.267 271.283 229.899 271.415 229.619 271.679C229.339 271.935 229.203 272.275 229.211 272.699V273.071C229.211 273.151 229.171 273.191 229.091 273.191H228.467C228.387 273.191 228.347 273.151 228.347 273.071V272.591C228.363 271.975 228.591 271.479 229.031 271.103C229.479 270.727 230.043 270.539 230.723 270.539C231.203 270.539 231.627 270.631 231.995 270.815C232.363 270.999 232.647 271.255 232.847 271.583C233.047 271.903 233.147 272.267 233.147 272.675C233.147 273.355 232.771 274.175 232.019 275.135C231.627 275.639 230.871 276.567 229.751 277.919L229.487 278.231ZM239.425 275.087C239.593 275.447 239.677 275.903 239.677 276.455C239.677 276.951 239.613 277.351 239.485 277.655C239.317 278.119 239.049 278.479 238.681 278.735C238.313 278.991 237.853 279.119 237.301 279.119C236.725 279.119 236.241 278.983 235.849 278.711C235.457 278.439 235.181 278.055 235.021 277.559C234.925 277.239 234.877 276.863 234.877 276.431V272.687C234.877 272.031 235.093 271.511 235.525 271.127C235.957 270.735 236.521 270.539 237.217 270.539C237.897 270.539 238.445 270.727 238.861 271.103C239.277 271.479 239.485 271.975 239.485 272.591V272.759C239.485 272.839 239.445 272.879 239.365 272.879H238.753C238.673 272.879 238.633 272.839 238.633 272.759V272.663C238.633 272.255 238.501 271.923 238.237 271.667C237.973 271.411 237.633 271.283 237.217 271.283C236.785 271.283 236.429 271.419 236.149 271.691C235.869 271.955 235.729 272.307 235.729 272.747V274.511C235.729 274.527 235.737 274.539 235.753 274.547C235.769 274.547 235.781 274.539 235.789 274.523C236.141 274.043 236.673 273.803 237.385 273.803C237.889 273.803 238.309 273.915 238.645 274.139C238.989 274.363 239.249 274.679 239.425 275.087ZM238.681 277.367C238.777 277.119 238.825 276.815 238.825 276.455C238.825 276.039 238.769 275.719 238.657 275.495C238.561 275.199 238.393 274.967 238.153 274.799C237.913 274.631 237.617 274.547 237.265 274.547C236.913 274.547 236.617 274.635 236.377 274.811C236.137 274.979 235.969 275.215 235.873 275.519C235.777 275.767 235.729 276.091 235.729 276.491C235.729 276.843 235.769 277.135 235.849 277.367C235.945 277.671 236.113 277.915 236.353 278.099C236.601 278.283 236.909 278.375 237.277 278.375C237.621 278.375 237.917 278.291 238.165 278.123C238.413 277.947 238.585 277.695 238.681 277.367Z" fill="#373334"/>
<circle cx="295.532" cy="275.035" r="12" fill="white"/>
<path d="M290.803 278.231C290.779 278.271 290.787 278.291 290.827 278.291H294.595C294.675 278.291 294.715 278.331 294.715 278.411V278.915C294.715 278.995 294.675 279.035 294.595 279.035H289.807C289.727 279.035 289.687 278.995 289.687 278.915V278.411C289.687 278.355 289.707 278.307 289.747 278.267C290.019 277.947 290.631 277.195 291.583 276.011L292.471 274.907C293.223 273.955 293.599 273.215 293.599 272.687C293.599 272.263 293.455 271.923 293.167 271.667C292.879 271.411 292.503 271.283 292.039 271.283C291.583 271.283 291.215 271.415 290.935 271.679C290.655 271.935 290.519 272.275 290.527 272.699V273.071C290.527 273.151 290.487 273.191 290.407 273.191H289.783C289.703 273.191 289.663 273.151 289.663 273.071V272.591C289.679 271.975 289.907 271.479 290.347 271.103C290.795 270.727 291.359 270.539 292.039 270.539C292.519 270.539 292.943 270.631 293.311 270.815C293.679 270.999 293.963 271.255 294.163 271.583C294.363 271.903 294.463 272.267 294.463 272.675C294.463 273.355 294.087 274.175 293.335 275.135C292.943 275.639 292.187 276.567 291.067 277.919L290.803 278.231ZM297.225 279.035C297.185 279.035 297.153 279.023 297.129 278.999C297.113 278.967 297.113 278.931 297.129 278.891L299.901 271.439C299.909 271.423 299.909 271.411 299.901 271.403C299.893 271.387 299.881 271.379 299.865 271.379H296.625C296.593 271.379 296.577 271.395 296.577 271.427V271.979C296.577 272.059 296.537 272.099 296.457 272.099H295.965C295.885 272.099 295.845 272.059 295.845 271.979L295.857 270.755C295.857 270.675 295.897 270.635 295.977 270.635H300.705C300.785 270.635 300.825 270.675 300.825 270.755V271.307C300.825 271.339 300.817 271.387 300.801 271.451L298.041 278.939C298.017 279.003 297.969 279.035 297.897 279.035H297.225Z" fill="#373334"/>
<circle cx="356.597" cy="275.035" r="12" fill="white"/>
<path d="M351.575 278.231C351.551 278.271 351.559 278.291 351.599 278.291H355.367C355.447 278.291 355.487 278.331 355.487 278.411V278.915C355.487 278.995 355.447 279.035 355.367 279.035H350.579C350.499 279.035 350.459 278.995 350.459 278.915V278.411C350.459 278.355 350.479 278.307 350.519 278.267C350.791 277.947 351.403 277.195 352.355 276.011L353.243 274.907C353.995 273.955 354.371 273.215 354.371 272.687C354.371 272.263 354.227 271.923 353.939 271.667C353.651 271.411 353.275 271.283 352.811 271.283C352.355 271.283 351.987 271.415 351.707 271.679C351.427 271.935 351.291 272.275 351.299 272.699V273.071C351.299 273.151 351.259 273.191 351.179 273.191H350.555C350.475 273.191 350.435 273.151 350.435 273.071V272.591C350.451 271.975 350.679 271.479 351.119 271.103C351.567 270.727 352.131 270.539 352.811 270.539C353.291 270.539 353.715 270.631 354.083 270.815C354.451 270.999 354.735 271.255 354.935 271.583C355.135 271.903 355.235 272.267 355.235 272.675C355.235 273.355 354.859 274.175 354.107 275.135C353.715 275.639 352.959 276.567 351.839 277.919L351.575 278.231ZM361.477 275.507C361.629 275.835 361.705 276.227 361.705 276.683C361.705 277.235 361.589 277.703 361.357 278.087C361.165 278.415 360.893 278.671 360.541 278.855C360.189 279.039 359.781 279.131 359.317 279.131C358.837 279.131 358.417 279.039 358.057 278.855C357.697 278.663 357.421 278.387 357.229 278.027C357.005 277.627 356.893 277.175 356.893 276.671C356.893 276.247 356.977 275.847 357.145 275.471C357.329 275.071 357.621 274.771 358.021 274.571C358.061 274.555 358.061 274.535 358.021 274.511C357.757 274.359 357.541 274.155 357.373 273.899C357.133 273.555 357.013 273.163 357.013 272.723C357.013 272.275 357.133 271.867 357.373 271.499C357.565 271.187 357.829 270.947 358.165 270.779C358.509 270.603 358.893 270.515 359.317 270.515C359.757 270.515 360.141 270.603 360.469 270.779C360.797 270.947 361.057 271.187 361.249 271.499C361.481 271.875 361.597 272.283 361.597 272.723C361.597 273.163 361.477 273.563 361.237 273.923C361.093 274.139 360.881 274.335 360.601 274.511C360.561 274.535 360.561 274.555 360.601 274.571C361.009 274.771 361.301 275.083 361.477 275.507ZM358.045 272.015C357.917 272.255 357.853 272.491 357.853 272.723C357.853 273.059 357.937 273.351 358.105 273.599C358.233 273.799 358.397 273.951 358.597 274.055C358.805 274.159 359.041 274.211 359.305 274.211C359.569 274.211 359.805 274.159 360.013 274.055C360.221 273.943 360.389 273.787 360.517 273.587C360.669 273.371 360.745 273.079 360.745 272.711C360.745 272.447 360.685 272.207 360.565 271.991C360.445 271.767 360.277 271.591 360.061 271.463C359.845 271.327 359.589 271.259 359.293 271.259C359.013 271.259 358.765 271.327 358.549 271.463C358.333 271.599 358.165 271.783 358.045 272.015ZM360.553 277.763C360.753 277.459 360.853 277.079 360.853 276.623C360.853 276.247 360.789 275.923 360.661 275.651C360.421 275.123 359.969 274.859 359.305 274.859C358.673 274.859 358.233 275.107 357.985 275.603C357.841 275.859 357.769 276.203 357.769 276.635C357.769 277.083 357.857 277.447 358.033 277.727C358.305 278.167 358.733 278.387 359.317 278.387C359.885 278.387 360.297 278.179 360.553 277.763Z" fill="#373334"/>
<circle cx="417.661" cy="275.035" r="12" fill="white"/>
<path d="M416.161 278.035C416.257 278.035 416.293 277.963 416.293 277.879V277.207C416.293 277.135 416.269 277.063 416.161 277.063H411.781V276.799C411.781 275.815 412.021 275.359 413.905 274.471C415.729 273.619 416.353 272.971 416.353 271.627C416.353 270.247 415.465 269.143 413.641 269.143C412.201 269.143 411.265 269.923 410.821 271.051C410.749 271.231 410.845 271.267 410.941 271.315L411.541 271.543C411.661 271.579 411.733 271.531 411.793 271.375C412.105 270.643 412.549 270.127 413.653 270.127C414.685 270.127 415.237 270.763 415.237 271.615C415.237 272.419 414.949 272.863 413.377 273.595C411.157 274.627 410.629 275.551 410.629 277.183V278.035H416.161ZM422.538 272.407C422.538 273.487 421.83 274.195 420.714 274.195C419.514 274.195 418.938 273.403 418.938 272.251V271.975C418.938 270.787 419.658 270.127 420.75 270.127C421.878 270.127 422.538 270.823 422.538 272.035V272.407ZM422.538 275.215C422.538 276.679 421.722 277.183 420.69 277.183C419.778 277.183 419.214 276.799 418.926 276.247C418.854 276.103 418.77 276.115 418.674 276.163L418.086 276.475C417.978 276.535 417.954 276.643 418.038 276.799C418.446 277.579 419.406 278.167 420.726 278.167C422.25 278.167 423.654 277.279 423.654 275.071V271.987C423.654 270.247 422.526 269.143 420.75 269.143C418.902 269.143 417.822 270.391 417.822 271.915V272.263C417.822 273.943 418.854 275.119 420.558 275.119C421.434 275.119 422.166 274.771 422.538 274.183V275.215Z" fill="#373334"/>
</g>
<g clip-path="url(#clip7_2_411)">
<circle cx="51.2749" cy="316.725" r="12" fill="white"/>
<path d="M49.8517 317.169C49.8517 315.897 49.0357 315.297 48.2437 315.141C49.0237 314.961 49.6477 314.193 49.6477 313.305V313.125C49.6477 311.709 48.7597 310.833 47.0197 310.833C45.6877 310.833 44.7637 311.529 44.3917 312.669C44.3317 312.825 44.3797 312.885 44.4877 312.921L45.0877 313.137C45.1837 313.173 45.2677 313.137 45.3157 313.017C45.6277 312.225 46.0837 311.817 47.0197 311.817C47.9917 311.817 48.5437 312.273 48.5437 313.173V313.341C48.5437 314.133 47.9197 314.697 47.0077 314.697H46.4197C46.3117 314.697 46.2997 314.769 46.2997 314.841V315.489C46.2997 315.561 46.3237 315.621 46.4197 315.621H46.9837C48.0997 315.621 48.7357 316.233 48.7357 317.217V317.325C48.7357 318.333 47.9917 318.873 46.9837 318.873C45.8557 318.873 45.2677 318.285 45.0637 317.553C45.0157 317.397 44.8837 317.373 44.7517 317.433L44.2117 317.637C44.0797 317.685 44.0437 317.769 44.0917 317.937C44.3917 318.861 45.2077 319.857 47.0077 319.857C48.5917 319.857 49.8517 318.849 49.8517 317.325V317.169ZM57.2287 313.593C57.2287 311.841 56.3287 310.833 54.3367 310.833C52.3447 310.833 51.4447 311.853 51.4447 313.617V317.085C51.4447 318.849 52.3447 319.857 54.3367 319.857C56.3287 319.857 57.2287 318.825 57.2287 317.085V313.593ZM56.1247 317.001C56.1247 318.237 55.6567 318.873 54.3367 318.873C53.0647 318.873 52.5487 318.201 52.5487 317.001V313.701C52.5487 312.501 53.0647 311.817 54.3367 311.817C55.6567 311.817 56.1247 312.501 56.1247 313.701V317.001Z" fill="#373334"/>
<circle cx="112.339" cy="316.725" r="12" fill="white"/>
<path d="M111.496 317.169C111.496 315.897 110.68 315.297 109.888 315.141C110.668 314.961 111.292 314.193 111.292 313.305V313.125C111.292 311.709 110.404 310.833 108.664 310.833C107.332 310.833 106.408 311.529 106.036 312.669C105.976 312.825 106.024 312.885 106.132 312.921L106.732 313.137C106.828 313.173 106.912 313.137 106.96 313.017C107.272 312.225 107.728 311.817 108.664 311.817C109.636 311.817 110.188 312.273 110.188 313.173V313.341C110.188 314.133 109.564 314.697 108.652 314.697H108.064C107.956 314.697 107.944 314.769 107.944 314.841V315.489C107.944 315.561 107.968 315.621 108.064 315.621H108.628C109.744 315.621 110.38 316.233 110.38 317.217V317.325C110.38 318.333 109.636 318.873 108.628 318.873C107.5 318.873 106.912 318.285 106.708 317.553C106.66 317.397 106.528 317.373 106.396 317.433L105.856 317.637C105.724 317.685 105.688 317.769 105.736 317.937C106.036 318.861 106.852 319.857 108.652 319.857C110.236 319.857 111.496 318.849 111.496 317.325V317.169ZM117.745 319.725C117.841 319.725 117.877 319.653 117.877 319.581V318.885C117.877 318.813 117.841 318.753 117.745 318.753H116.149V310.953H115.453C115.357 311.097 115.213 311.313 115.033 311.433C114.661 311.661 113.485 311.889 113.113 311.985C113.041 311.997 113.017 312.057 113.029 312.141L113.077 312.681C113.089 312.777 113.137 312.813 113.245 312.813L115.045 312.585V318.753H113.401C113.305 318.753 113.281 318.813 113.281 318.885V319.581C113.281 319.665 113.317 319.725 113.413 319.725H117.745Z" fill="#373334"/>
<circle cx="173.404" cy="316.725" r="12" fill="white"/>
<path d="M175.247 319.725C175.343 319.725 175.379 319.653 175.379 319.581V318.885C175.379 318.813 175.343 318.753 175.247 318.753H173.651V310.953H172.955C172.859 311.097 172.715 311.313 172.535 311.433C172.163 311.661 170.987 311.889 170.615 311.985C170.543 311.997 170.519 312.057 170.531 312.141L170.579 312.681C170.591 312.777 170.639 312.813 170.747 312.813L172.547 312.585V318.753H170.903C170.807 318.753 170.783 318.813 170.783 318.885V319.581C170.783 319.665 170.819 319.725 170.915 319.725H175.247Z" fill="#959595"/>
<circle cx="234.468" cy="316.725" r="12" fill="white"/>
<path d="M236.647 319.725C236.743 319.725 236.779 319.653 236.779 319.569V318.897C236.779 318.825 236.755 318.753 236.647 318.753H232.267V318.489C232.267 317.505 232.507 317.049 234.391 316.161C236.215 315.309 236.839 314.661 236.839 313.317C236.839 311.937 235.951 310.833 234.127 310.833C232.687 310.833 231.751 311.613 231.307 312.741C231.235 312.921 231.331 312.957 231.427 313.005L232.027 313.233C232.147 313.269 232.219 313.221 232.279 313.065C232.591 312.333 233.035 311.817 234.139 311.817C235.171 311.817 235.723 312.453 235.723 313.305C235.723 314.109 235.435 314.553 233.863 315.285C231.643 316.317 231.115 317.241 231.115 318.873V319.725H236.647Z" fill="#959595"/>
<circle cx="295.532" cy="316.725" r="12" fill="white"/>
<path d="M297.83 317.169C297.83 315.897 297.014 315.297 296.222 315.141C297.002 314.961 297.626 314.193 297.626 313.305V313.125C297.626 311.709 296.738 310.833 294.998 310.833C293.666 310.833 292.742 311.529 292.37 312.669C292.31 312.825 292.358 312.885 292.466 312.921L293.066 313.137C293.162 313.173 293.246 313.137 293.294 313.017C293.606 312.225 294.062 311.817 294.998 311.817C295.97 311.817 296.522 312.273 296.522 313.173V313.341C296.522 314.133 295.898 314.697 294.986 314.697H294.398C294.29 314.697 294.278 314.769 294.278 314.841V315.489C294.278 315.561 294.302 315.621 294.398 315.621H294.962C296.078 315.621 296.714 316.233 296.714 317.217V317.325C296.714 318.333 295.97 318.873 294.962 318.873C293.834 318.873 293.246 318.285 293.042 317.553C292.994 317.397 292.862 317.373 292.73 317.433L292.19 317.637C292.058 317.685 292.022 317.769 292.07 317.937C292.37 318.861 293.186 319.857 294.986 319.857C296.57 319.857 297.83 318.849 297.83 317.325V317.169Z" fill="#959595"/>
<circle cx="356.597" cy="316.725" r="12" fill="white"/>
<path d="M357.773 319.797C357.857 319.797 357.917 319.749 357.917 319.653V317.517H358.937C359.033 317.517 359.081 317.457 359.081 317.373V316.701C359.081 316.617 359.045 316.545 358.937 316.545H357.917V314.913C357.917 314.817 357.845 314.781 357.773 314.781H356.957C356.885 314.781 356.801 314.805 356.801 314.913V316.545H354.413L358.013 311.529C358.049 311.469 358.073 311.349 357.965 311.289L357.413 310.821C357.329 310.773 357.245 310.809 357.197 310.881L353.057 316.641C352.997 316.725 352.985 316.749 353.009 316.845L353.129 317.409C353.153 317.493 353.189 317.517 353.261 317.517H356.801V319.653C356.801 319.761 356.873 319.797 356.957 319.797H357.773Z" fill="#959595"/>
<circle cx="417.661" cy="316.725" r="12" fill="white"/>
<path d="M419.539 317.053C419.611 317.405 419.647 317.765 419.647 318.133C419.647 318.525 419.611 318.861 419.539 319.141C419.403 319.653 419.131 320.061 418.723 320.365C418.315 320.661 417.823 320.809 417.247 320.809C416.679 320.809 416.195 320.665 415.795 320.377C415.395 320.089 415.123 319.705 414.979 319.225C414.923 319.049 414.887 318.873 414.871 318.697V318.673C414.871 318.609 414.907 318.577 414.979 318.577H415.615C415.695 318.577 415.739 318.617 415.747 318.697C415.747 318.745 415.763 318.825 415.795 318.937C415.875 319.281 416.039 319.557 416.287 319.765C416.543 319.965 416.859 320.065 417.235 320.065C417.619 320.065 417.939 319.957 418.195 319.741C418.459 319.525 418.631 319.229 418.711 318.853C418.759 318.669 418.783 318.429 418.783 318.133C418.783 317.861 418.763 317.601 418.723 317.353C418.667 316.985 418.507 316.705 418.243 316.513C417.979 316.321 417.651 316.225 417.259 316.225C416.907 316.225 416.591 316.305 416.311 316.465C416.031 316.625 415.851 316.837 415.771 317.101C415.747 317.173 415.703 317.209 415.639 317.209H414.991C414.911 317.209 414.871 317.169 414.871 317.089V312.445C414.871 312.365 414.911 312.325 414.991 312.325H419.191C419.271 312.325 419.311 312.365 419.311 312.445V312.949C419.311 313.029 419.271 313.069 419.191 313.069H415.771C415.739 313.069 415.723 313.085 415.723 313.117L415.711 316.021C415.711 316.037 415.715 316.049 415.723 316.057C415.739 316.065 415.755 316.061 415.771 316.045C415.971 315.861 416.207 315.721 416.479 315.625C416.751 315.521 417.039 315.469 417.343 315.469C417.911 315.469 418.391 315.609 418.783 315.889C419.175 316.161 419.427 316.549 419.539 317.053Z" fill="#959595"/>
</g>
</g>
<rect x="1" y="1" width="466" height="349" stroke="#373334" stroke-width="2"/>
<defs>
<clipPath id="clip0_2_411">
<rect width="427.45" height="24" fill="white" transform="translate(20.2749 20.2748)"/>
</clipPath>
<clipPath id="clip1_2_411">
<rect width="427.45" height="236.45" fill="white" transform="translate(20.2749 94.2748)"/>
</clipPath>
<clipPath id="clip2_2_411">
<rect width="427.45" height="28" fill="white" transform="translate(20.2749 94.2748)"/>
</clipPath>
<clipPath id="clip3_2_411">
<rect width="427.45" height="28" fill="white" transform="translate(20.2749 135.965)"/>
</clipPath>
<clipPath id="clip4_2_411">
<rect width="427.45" height="28" fill="white" transform="translate(20.2749 177.655)"/>
</clipPath>
<clipPath id="clip5_2_411">
<rect width="427.45" height="28" fill="white" transform="translate(20.2749 219.345)"/>
</clipPath>
<clipPath id="clip6_2_411">
<rect width="427.45" height="28" fill="white" transform="translate(20.2749 261.035)"/>
</clipPath>
<clipPath id="clip7_2_411">
<rect width="427.45" height="28" fill="white" transform="translate(20.2749 302.725)"/>
</clipPath>
</defs>
</svg>
